<svg xmlns="http://www.w3.org/2000/svg" width="30.048" height="25" viewBox="0 0 7.95 6.615"><path d="M.013 3.307C.013 0 .013 0 3.982 0 7.95 0 7.95 0 7.95 3.307c0 3.308 0 3.308-3.968 3.308-3.97 0-3.97 0-3.97-3.308z" fill="#fff"/><path d="M6.23 6.2c-.582-.204-1.422-.373-1.867-.375-.445-.002-1.04-.179-1.323-.393-.485-.367-.466-.389.36-.396 1.722-.017 2.951-1.012 3.209-2.599.158-.974.158-.974.75-.383.76.76.792 2.18.063 2.84-.396.358-.456.565-.24.826.54.65.129.858-.952.48zM.542 5.11c0-.133.122-.364.27-.512.185-.185.101-.425-.264-.756C-.095 3.26-.157 1.947.42 1.125.941.38 2.606-.118 3.816.109 5.07.344 6.363 1.45 6.363 2.289c0 1.46-.806 2.124-3.01 2.486-.746.122-1.683.302-2.083.4-.4.098-.728.07-.728-.064z" fill="#eef6f5"/><path d="M6.098 6.085c-.218-.14-.88-.258-1.47-.26-.591-.002-1.295-.165-1.564-.362-.441-.323-.367-.371.764-.499 1.653-.186 2.8-1.229 2.8-2.546 0-.923 0-.923.66-.301.829.778.889 2.094.127 2.783-.365.33-.45.571-.265.756.64.639-.198.98-1.052.43zM.542 5.074c0-.154.121-.355.27-.447.164-.102.062-.429-.265-.845C-.621 2.297.3.486 2.405.13c1.923-.325 3.958.893 3.958 2.37 0 .968-1.35 2.007-2.944 2.266-.782.127-1.75.311-2.15.41-.447.109-.727.07-.727-.102z" fill="#ddeeec"/><path d="M6.098 6.085c-.218-.14-.88-.258-1.47-.26-.591-.002-1.306-.179-1.588-.393-.478-.361-.437-.389.602-.396 1.45-.011 2.985-1.254 2.985-2.418 0-.884.265-.968.885-.282.591.653.552 1.681-.096 2.505-.327.415-.429.743-.264.845.43.265.312.664-.194.66a1.9 1.9 0 01-.86-.26zM.542 5.074c0-.154.121-.355.27-.447.164-.102.062-.429-.265-.845C-.585 2.343.087.845 2.139.23c.906-.271 1.287-.262 2.174.051 3.115 1.101 2.362 3.983-1.18 4.512-.77.115-1.668.288-1.996.385-.353.104-.595.061-.595-.104z" fill="#cce6e4"/><path d="M6.098 6.085c-.218-.14-.833-.258-1.367-.26-.534-.002-1.16-.076-1.39-.165-.695-.267-.47-.633.39-.633 1.645 0 2.896-1.078 2.896-2.496 0-.8.281-.863.885-.195.583.644.555 1.695-.066 2.461-.365.452-.436.75-.255 1.088.194.363.145.464-.224.461-.26-.002-.65-.12-.869-.26zM.542 5.111c0-.134.13-.374.291-.534.212-.211.14-.442-.265-.846C-1.237 1.925 1.741-.723 4.428.299c2.994 1.14 2.178 3.975-1.294 4.494-.77.115-1.67.288-1.997.385-.327.096-.595.066-.595-.067z" fill="#bbdfdb"/><path d="M6.098 6.085c-.218-.14-.813-.266-1.323-.279-.51-.012-1.164-.116-1.455-.23-.454-.18-.398-.238.397-.411 1.535-.334 2.402-.917 2.807-1.887.212-.506.314-1.034.228-1.173-.328-.532.395-.224.786.335.552.787.52 1.602-.092 2.357-.365.452-.436.75-.255 1.088.194.363.145.464-.224.461-.26-.002-.65-.12-.869-.26zM.542 5.111c0-.134.13-.374.291-.534.212-.211.14-.442-.265-.846-1.8-1.8 1.04-4.334 3.815-3.405C7.442 1.35 6.658 4.21 3.169 4.756c-.79.123-1.704.308-2.032.41-.327.103-.595.078-.595-.055z" fill="#aad7d2"/><path d="M6.098 6.085c-.218-.14-.813-.266-1.323-.279-.51-.012-1.164-.116-1.455-.23-.454-.18-.398-.238.397-.411 1.535-.334 2.402-.917 2.807-1.887.212-.506.314-1.034.228-1.173-.328-.532.395-.224.786.335.563.804.517 1.589-.143 2.427-.446.568-.492.781-.232 1.094.265.319.233.388-.173.385a1.965 1.965 0 01-.892-.26zM.542 5.111c0-.134.133-.376.295-.538.218-.218.148-.454-.264-.897C-.554 2.466.189.821 2.11.27c2.325-.667 4.894 1.21 3.984 2.91-.433.81-1.423 1.339-2.959 1.58-.772.12-1.671.304-1.999.407-.327.102-.595.077-.595-.056z" fill="#99cfca"/><path d="M6.098 6.085c-.218-.14-.813-.266-1.323-.279-.51-.012-1.164-.125-1.455-.25-.53-.227-.53-.227 0-.252 1.218-.056 2.793-1.042 3.193-2 .218-.52.325-1.06.24-1.199-.33-.532.394-.224.785.335.563.804.517 1.589-.143 2.427-.446.568-.492.781-.232 1.094.265.319.233.388-.173.385a1.965 1.965 0 01-.892-.26zM.8 4.776c.269-.502.233-.682-.234-1.18-.698-.743-.7-1.484-.008-2.363C2.309-.995 7.05.54 6.104 3.029c-.343.902-1.321 1.473-2.967 1.73-.772.122-1.685.308-2.03.415-.58.181-.602.154-.307-.398z" fill="#88c7c0"/><path d="M6.363 6.085c-.219-.14-.814-.266-1.323-.279-.51-.012-1.164-.119-1.455-.237-.446-.18-.37-.245.482-.411 1.388-.27 2.502-1.27 2.722-2.443.18-.958.18-.958.67-.352.651.803.621 1.74-.077 2.439-.465.465-.513.657-.262 1.058.348.558-.057.678-.757.225zM.848 4.794c.255-.408.208-.629-.262-1.226-.734-.933-.724-1.512.043-2.403C1.861-.267 5.584.104 5.984 1.698c.414 1.65-.554 2.762-2.549 2.927-.645.053-1.508.225-1.918.382-.991.379-1.03.366-.669-.213z" fill="#77bfb8"/><path d="M6.363 6.085c-.219-.14-.814-.266-1.323-.279-.51-.012-1.162-.115-1.451-.227-.437-.171-.36-.236.455-.39C5.406 4.935 6.57 3.886 6.79 2.716c.18-.958.18-.958.67-.352.649.8.62 1.631-.08 2.384-.47.504-.516.702-.262 1.108.35.563-.05.685-.754.23zM.936 4.772c.104-.327-.05-.81-.413-1.302-.749-1.013-.524-1.985.621-2.683C2.793-.22 5.641.333 5.991 1.725c.4 1.593-.575 2.677-2.589 2.879-.627.063-1.476.244-1.886.401-.68.262-.73.241-.58-.233z" fill="#66b7af"/><path d="M6.363 6.085c-.219-.14-.814-.266-1.323-.279-.51-.012-1.162-.115-1.451-.227-.432-.169-.341-.24.51-.4C5.31 4.953 6.892 3.52 6.892 2.65c0-.776.594-.55.91.347.202.57.132.863-.368 1.54-.504.681-.562.927-.313 1.325.347.556-.059.675-.758.223zm-5.431-1.3c.108-.342-.038-.813-.41-1.315C-.63 1.911.76.268 3.235.266 5.528.264 6.944 2.328 5.583 3.69c-.508.508-2.593 1.227-2.84.98-.07-.07-.544.047-1.054.26-.89.372-.92.366-.757-.145z" fill="#55afa6"/><path d="M6.363 6.085c-.219-.14-.814-.266-1.323-.279-.51-.012-1.162-.115-1.451-.227-.432-.169-.341-.24.51-.4 1.198-.224 2.793-1.656 2.793-2.507 0-.81.414-.679.8.254.3.724.272.895-.27 1.628-.493.666-.55.91-.301 1.308.347.556-.059.675-.758.223zM.936 4.77c.104-.325-.05-.81-.413-1.3C-.7 1.818.828.15 3.388.338c3.228.238 3.762 3.288.723 4.127-.53.146-1.134.2-1.343.12a.813.813 0 00-.708.107c-.18.139-.544.33-.808.425-.386.138-.448.07-.316-.347z" fill="#44a79d"/><path d="M6.363 6.026a5.762 5.762 0 00-1.39-.32c-1.884-.148-1.926-.184-.683-.567 1.32-.406 2.602-1.644 2.602-2.513 0-.756.42-.617.784.26.34.823.142 1.482-.64 2.132-.32.265-.345.428-.11.712.42.505.223.608-.563.296zM.956 4.68c.087-.226-.097-.755-.41-1.177C.13 2.939.03 2.543.165 2.004.793-.5 6.098-.123 6.098 2.427c0 1.289-.85 1.868-3.175 2.163-.51.064-1.196.204-1.525.31-.476.151-.567.106-.442-.22z" fill="#33a095"/><path d="M6.363 6.036c-.364-.14-1.18-.297-1.814-.35-1.218-.102-1.858-.394-.863-.394 1.341 0 3.196-1.586 3.215-2.748.009-.548.019-.547.529.065.678.813.656 1.158-.13 2.092-.486.578-.574.848-.348 1.074.436.436.174.552-.59.26zM1.036 4.563c.228-.426.206-.574-.106-.693-.69-.265-.963-1.426-.532-2.26 1.104-2.135 5.7-1.513 5.7.771 0 1.064-1.093 1.926-2.72 2.143-.76.102-1.662.274-2.006.383-.568.18-.599.147-.336-.344z" fill="#22988c"/><path d="M6.276 5.955c-.398-.207-.868-.322-1.046-.256-.177.066-.68.02-1.116-.1-.794-.218-.794-.218.178-.403 1.118-.213 2.595-1.7 2.609-2.626.009-.586.009-.586.535.047.588.706.493 1.416-.308 2.293-.381.417-.424.617-.186.855.495.495.125.6-.666.19zM1.06 4.65c.34-.414.33-.498-.081-.728-.256-.143-.575-.55-.71-.902C-.515.956 2.91-.58 5.068.868c1.918 1.288.99 3.298-1.688 3.656-.76.102-1.68.277-2.043.39-.61.189-.631.168-.277-.264z" fill="#119083"/><path d="M6.363 5.955c-.364-.206-.84-.323-1.059-.26-.218.065-.754.02-1.19-.098-.794-.216-.794-.216.188-.403 1.233-.235 2.59-1.541 2.59-2.493 0-.644.033-.665.43-.268.592.592.539 1.712-.115 2.41-.41.437-.48.696-.284 1.044.309.55.291.552-.56.068zM1.07 4.633c.308-.376.321-.511.06-.599-.182-.062-.521-.474-.75-.918-.388-.751-.382-.852.097-1.498C1.472.276 3.262-.12 4.781.664c2.272 1.175 1.485 3.383-1.366 3.83-.78.121-1.716.312-2.08.423-.616.188-.634.169-.264-.284z" fill="#00887a"/></svg>