<svg xmlns="http://www.w3.org/2000/svg" width="15" height="28" viewBox="0 0 3.969 7.408"><path d="M0 3.704C0 0 0 0 1.984 0 3.97 0 3.97 0 3.97 3.704s0 3.704-1.985 3.704S0 7.408 0 3.704z" fill="#fff"/><path d="M1.323 5.689c0-1.659-.024-1.72-.662-1.72-.529 0-.661-.133-.661-.662s.132-.661.661-.661c.578 0 .662-.116.662-.911C1.323.679 2.07 0 3.233 0c.588 0 .736.12.736.599 0 .366-.23.7-.594.86-.883.388-.941 1.187-.087 1.187.55 0 .68.127.68.661 0 .53-.132.662-.66.662-.638 0-.662.061-.662 1.72 0 1.658-.024 1.72-.662 1.72-.637 0-.661-.062-.661-1.72z" fill="#fefefe"/></svg>