<svg xmlns="http://www.w3.org/2000/svg" width="26.173" height="27.062" viewBox="0 0 6.925 7.16"><path d="M.005 3.588c0-3.572 0-3.572 3.44-3.572 3.439 0 3.439 0 3.439 3.572s0 3.572-3.44 3.572-3.44 0-3.44-3.572z" fill="#fff"/><path d="M1.69 6.653C.416 5.877.004 5.104.004 3.498c0-1.305.088-1.515 1.027-2.454C1.95.125 2.199.016 3.377.016c2.085 0 3.508 1.472 3.506 3.625C6.88 6.31 3.93 8.02 1.689 6.653zm2.233-.514c.343-.218.204-1.499-.189-1.741-.245-.152-1.877.9-1.877 1.21 0 .24.93.712 1.455.738.145.007.42-.086.61-.207zM5.552 5.06c.43-.806.327-1.076-.416-1.076-.52 0-.65.103-.53.419.089.23.161.587.161.793 0 .542.465.461.785-.136zM2.915 3.688c.645-.42.626-.427-.794-.297-.8.073-1.485.158-1.522.188-.037.03.06.42.214.864.282.809.282.809.861.242a9.677 9.677 0 011.241-.997zM6.09 3.08c0-.207-.07-.56-.157-.784-.134-.35-.271-.323-.95.177-.794.585-.794.585-.042.752 1.148.255 1.15.255 1.15-.145zm-3.22-.552c.048-.047-.124-.408-.382-.802-.47-.717-.47-.717-1.08-.008-.881 1.024-.784 1.3.383 1.082.545-.102 1.031-.224 1.08-.271zm1.633-.793c.18-.218.284-.397.229-.397-.056 0-.483-.11-.951-.244C2.93.85 2.93.85 3.35 1.491c.488.745.7.79 1.153.244z" fill="#eef6f5"/><path d="M1.928 6.768C.605 6.193-.046 4.938.081 3.214.174 1.969.314 1.666 1.151.899c2.92-2.676 7.313 1.153 5.234 4.563-.54.884-1.988 1.704-2.98 1.688-.343-.006-1.007-.178-1.477-.382zm1.995-.63c.346-.219.202-1.499-.196-1.745-.267-.164-1.87.85-1.87 1.184 0 .266.902.742 1.455.769.145.007.42-.086.61-.207zm1.629-1.077c.43-.806.327-1.076-.416-1.076-.52 0-.65.103-.53.419.089.23.161.587.161.793 0 .542.465.461.785-.136zM3.189 3.72c.14 0 .255-.114.255-.253 0-.222-2.602-.088-2.88.149-.056.048.048.447.23.888.333.802.333.802 1.236.008.497-.436 1.018-.793 1.159-.793zm2.901-.64c0-.207-.072-.563-.16-.792-.139-.362-.27-.339-.99.174-.83.592-.83.592-.039.761.436.093.881.183.99.2.11.018.2-.137.2-.343zm-4.002-.32c.958-.191 1.005-.35.344-1.166-.483-.597-.483-.597-1.058.02-.585.628-.764 1.312-.344 1.312.127 0 .603-.075 1.058-.166zm2.534-.983c.445-.325.393-.379-.608-.633-1.111-.282-1.166-.209-.496.657.324.42.503.416 1.104-.024z" fill="#ddeeec"/><path d="M1.928 6.768C.102 5.974-.57 3.33.608 1.58c2.484-3.687 7.9-.218 5.792 3.71-.535 1-1.926 1.875-2.952 1.859-.366-.006-1.05-.178-1.52-.382zm1.995-.63c.372-.235.19-1.506-.255-1.781-.136-.084-.673.173-1.195.57-.948.724-.948.724-.319 1.072.73.405 1.282.449 1.769.14zm1.629-1.077c.43-.806.327-1.076-.416-1.076-.52 0-.65.103-.53.419.089.23.161.587.161.793 0 .542.465.461.785-.136zM3.22 3.655c.73-.26.047-.401-1.297-.269C.435 3.533.393 3.58.8 4.654c.268.704.268.704 1.165-.084.494-.434 1.058-.845 1.254-.915zm2.87-.574c0-.207-.072-.563-.16-.792-.139-.362-.27-.339-.99.174-.83.592-.83.592-.039.761.436.093.881.183.99.2.11.018.2-.137.2-.343zM2.86 2.54c.184-.18-.59-1.466-.882-1.466-.355 0-1.179 1.123-1.179 1.607 0 .207.315.245.993.118.545-.102 1.026-.218 1.068-.26zm1.427-1.302c-.463-.132-.842-.35-.842-.483S3.326.588 3.181.677c-.166.103-.115.452.14.943.399.772.41.776 1.104.32.702-.46.702-.46-.14-.7z" fill="#cce6e4"/><path d="M1.889 6.708C-1.345 5.115-.12.013 3.497.018c2.755.002 4.414 3.74 2.549 5.738-1.318 1.411-2.62 1.709-4.157.952zM4.05 5.464c-.09-1.244-.47-1.38-1.553-.555-.972.742-.972.742-.343 1.096.346.195.926.327 1.29.292.555-.053.653-.187.606-.833zm1.458-.209c.582-.582.38-1.27-.375-1.27-.589 0-.668.09-.533.595.088.328.162.685.164.794.005.3.387.239.744-.119zm-2.288-1.6c.73-.26.047-.401-1.297-.269C.435 3.533.393 3.58.8 4.654c.268.704.268.704 1.165-.084.494-.434 1.058-.845 1.254-.915zm2.866-.662c-.009-.999-.394-1.172-1.199-.538-.765.602-.765.602.02.77.433.093.876.182.985.2.109.017.196-.177.194-.432zm-3.227-.452c.19-.186-.595-1.466-.897-1.466-.4 0-1.164 1.014-1.164 1.543 0 .281.233.324.993.182.545-.102 1.026-.218 1.068-.26zm1.398-1.327C3.793 1.057 3.5.843 3.605.737c.106-.105.073-.191-.073-.191-.525 0-.589.345-.202 1.093.387.749.405.754 1.082.31.69-.451.69-.451-.155-.735z" fill="#bbdfdb"/><path d="M2.53 6.967C.33 6.408-.703 3.692.522 1.683a3.359 3.359 0 015.949.323c.9 1.898.09 3.946-1.895 4.791-.876.374-1.156.397-2.048.17zm1.559-.838c.256-.414-.167-1.88-.541-1.88-.198 0-.749.35-1.224.776-.864.776-.864.776-.203 1.042.843.339 1.779.368 1.968.062zm1.736-1.656c0-.35-.195-.488-.692-.488-.589 0-.668.09-.533.595.088.328.162.763.164.968.003.284.128.259.532-.108.291-.263.53-.698.53-.967zm-2.488-.961c.44-.298.371-.324-.554-.202-.582.077-1.326.141-1.654.143-.665.003-.715.184-.328 1.201.268.704.268.704 1.15-.049a20.988 20.988 0 011.386-1.093zm2.714-.85c-.277-.793-.277-.793-1.045-.34-1.102.652-.985 1.134.277 1.134 1.044 0 1.044 0 .768-.793zm-3.226-.087c.213-.212-.529-1.5-.863-1.5C1.56 1.075.798 2.09.798 2.623c0 .28.237.335.96.217.527-.085 1.007-.204 1.067-.265zm2.057-.943c.194-.314-.355-.74-1.24-.962-.84-.21-.872-.115-.321.951.34.657.488.741.911.515.278-.149.57-.375.65-.504z" fill="#aad7d2"/><path d="M1.989 6.672C-1.323 5.114-.192.016 3.466.016c1.746 0 3.42 1.769 3.417 3.612 0 .415-.233 1.135-.517 1.6C5.335 6.919 3.678 7.466 1.99 6.672zm2.12-.577c.273-.44-.146-1.845-.55-1.845-.204 0-.76.349-1.235.775-.864.776-.864.776-.203 1.042.875.352 1.78.365 1.989.028zm1.716-1.622c0-.35-.195-.488-.692-.488-.589 0-.668.09-.533.595.088.328.162.763.164.968.003.284.128.259.532-.108.291-.263.53-.698.53-.967zm-2.488-.961c.44-.298.371-.324-.554-.202-.582.077-1.326.141-1.654.143-.654.003-.77.505-.314 1.356.272.51.306.504 1.15-.215a20.735 20.735 0 011.372-1.082zm3.018-.171c0-.063-.12-.427-.264-.81-.264-.692-.266-.692-1.059-.224-1.131.669-1.02 1.149.264 1.149.582 0 1.059-.052 1.059-.115zm-4.03-.574c.799-.16.799-.16.364-.93-.54-.953-1.051-.884-1.702.23-.495.849-.495.86.019.86.286 0 .88-.072 1.319-.16zm2.557-1.135c.194-.314-.355-.74-1.24-.962-.84-.21-.872-.115-.321.952.34.656.488.74.911.514.278-.149.57-.375.65-.504z" fill="#99cfca"/><path d="M2.24 6.791C1.024 6.257.005 4.904.005 3.824c0-3.39 3.551-5.04 5.73-2.664 1.131 1.235 1.394 2.629.725 3.85-.926 1.69-2.712 2.444-4.22 1.78zm1.994-.888c-.007-.872-.322-1.653-.668-1.653-.19 0-.725.32-1.19.71-.789.664-.812.731-.366 1.058.73.534 2.229.457 2.224-.115zM6.09 4.235c0-.137-.371-.25-.825-.25-.726 0-.805.071-.665.595.088.328.165.774.172.993.013.434 1.318-.89 1.318-1.338zm-2.769-.514c.213 0 .388-.135.388-.3 0-.198-.334-.244-.992-.135-.546.09-1.26.165-1.588.167-.654.003-.77.505-.314 1.356.27.507.313.497 1.2-.282.505-.443 1.093-.806 1.306-.806zm2.89-.86c-.291-.963-.563-1.082-1.28-.56-1.01.737-.871 1.155.383 1.155.993 0 1.062-.046.896-.595zM2.705 2.71c.417-.166.41-.247-.097-1.047C1.994.692 1.617.806.906 2.18c-.386.747-.386.747.48.728.478-.01 1.071-.1 1.32-.198zm2.176-1.078c.194-.314-.355-.74-1.24-.962-.846-.212-.936.105-.303 1.07.337.515.523.594.911.387.268-.144.553-.366.632-.495z" fill="#88c7c0"/><path d="M1.165 6.027C.415 5.34.191 4.91.095 3.977c-.33-3.18 3.267-5.142 5.5-3.003 2.338 2.24.986 5.92-2.175 5.92-1.108 0-1.45-.131-2.255-.868zm3.132.192c.253-.253-.395-1.97-.745-1.97-.182 0-.711.32-1.175.71-.79.665-.813.732-.367 1.059.475.347 2.006.482 2.287.201zM6.09 4.235c0-.137-.357-.25-.794-.25-.824 0-.913.188-.615 1.3.17.64.17.64.79-.08.34-.396.62-.833.62-.97zm-2.912-.382c1.058-.336.563-.738-.697-.565-.675.092-1.39.168-1.587.168-.43 0-.468.628-.08 1.351.273.511.297.508 1.056-.131.428-.36 1.016-.73 1.308-.823zm3.032-.992c-.299-.99-.56-1.074-1.407-.448-1.001.74-.849 1.043.527 1.043.976 0 1.046-.047.88-.595zm-3.497-.153c.428-.17.423-.243-.082-1.072-.54-.89-.54-.89-1.162-.306-.341.321-.68.812-.753 1.09-.11.423.006.504.702.488.46-.01 1.042-.1 1.295-.2zM4.889 1.62C5.081 1.31 4.01.546 3.385.546c-.58 0-.602.487-.057 1.265.327.468.514.534.91.322.275-.147.568-.378.651-.512z" fill="#77bfb8"/><path d="M1.165 6.027C-.585 4.423-.227 1.644 1.877.484c2.56-1.41 5.537 1.163 4.73 4.088-.404 1.459-1.59 2.324-3.187 2.324-1.108 0-1.45-.132-2.255-.87zm3.15.141c.215-.39-.364-1.918-.726-1.918-.203 0-.748.32-1.212.71-.79.664-.813.731-.367 1.058.511.373 2.125.478 2.306.15zM6.09 4.235c0-.137-.406-.25-.901-.25-.901 0-.901 0-.608.957.294.956.294.956.901.25.335-.39.608-.82.608-.957zm-2.897-.386c.3-.095.499-.312.442-.482-.056-.17-.152-.293-.213-.276-.06.018-.735.119-1.5.224-1.456.2-1.656.47-1.109 1.492.274.511.298.508 1.057-.131.428-.36 1.023-.732 1.323-.827zm3.162-.74c0-.19-.16-.564-.356-.832-.341-.467-.387-.462-1.18.124-.454.336-.763.71-.687.833.232.375 2.223.265 2.223-.124zM2.84 2.715c.242-.154.189-.424-.214-1.086C2.091.747 2.091.747 1.47 1.33c-.341.321-.68.812-.753 1.09-.113.432.011.506.835.503.532-.002 1.112-.096 1.29-.209zm2.053-1.1c.222-.36-1.05-1.126-1.698-1.023-.545.087-.545.087-.014.955.448.734.61.826 1.044.594.282-.15.583-.388.668-.526z" fill="#66b7af"/><path d="M1.52 6.37C.16 5.294-.352 3.587.303 2.313 1.228.512 2.986-.347 4.48.272c2.371.982 3.028 4.124 1.217 5.825-.974.915-3.18 1.059-4.177.272zm2.796-.202c.06-.11.004-.585-.124-1.058-.29-1.065-.878-1.112-1.91-.155-.72.667-.735.724-.278 1.058.516.377 2.13.485 2.312.155zm1.37-1.111c.544-1.052.535-1.072-.497-1.072-.901 0-.901 0-.617.926.347 1.13.589 1.162 1.114.146zM3.193 3.849c.3-.095.499-.312.442-.482-.056-.17-.152-.293-.213-.276-.06.018-.735.119-1.5.224-1.197.164-1.388.27-1.388.774 0 1.05.527 1.268 1.363.565.413-.348.996-.71 1.296-.805zm3.162-.645c0-.139-.135-.548-.3-.91-.3-.657-.3-.657-1.174.04-.48.384-.815.794-.743.91.186.301 2.217.264 2.217-.04zm-3.515-.49c.242-.153.184-.432-.229-1.11-.55-.907-.55-.907-1.314-.052-.42.47-.763.971-.763 1.114 0 .307 1.839.345 2.306.048zm1.77-.819c.433-.478.426-.523-.15-.926C4.128.736 3.586.546 3.257.546c-.591 0-.593.01-.156.926.5 1.048.854 1.148 1.51.423z" fill="#55afa6"/><path d="M2.121 6.709C.81 6.229-.174 4.342.141 2.906.395 1.753 1.733.328 2.74.14c2.487-.466 4.626 2.076 3.816 4.536-.558 1.69-2.694 2.67-4.435 2.034zm2.156-1.136c-.051-.364-.206-.873-.344-1.132-.24-.45-.284-.45-1.055 0-1.689.988-1.383 1.995.566 1.858.823-.058.916-.138.833-.726zm1.41-.516c.543-1.052.534-1.072-.498-1.072-.901 0-.901 0-.617.926.347 1.13.589 1.162 1.114.146zm-4.095-.005c0-.142.475-.528 1.056-.86.581-.332 1.018-.723.97-.868-.047-.146-.135-.25-.196-.232-.06.017-.735.118-1.5.223C.726 3.48.535 3.586.535 4.09c0 .58.443 1.218.846 1.218.117 0 .212-.115.212-.256zm4.763-1.848c0-.139-.136-.549-.301-.912-.3-.66-.3-.66-1.188.017-.488.372-.822.783-.742.912.196.317 2.23.302 2.23-.017zm-3.515-.49c.242-.153.184-.431-.229-1.11-.55-.906-.55-.906-1.314-.052-.42.47-.763.971-.763 1.115 0 .306 1.839.344 2.306.047zm1.796-.847c.265-.292.432-.573.372-.625C4.643.922 3.664.546 3.201.546c-.527 0-.53.025-.1.926.504 1.058.854 1.148 1.535.395z" fill="#44a79d"/><path d="M1.882 6.561C.814 6.012.137 4.858.137 3.588.137 2.184.832 1.14 2.23.445 3.082.022 3.382-.007 4.244.252 5.707.69 6.62 1.882 6.62 3.357c0 .651-.18 1.533-.401 1.96-.722 1.396-2.851 2.007-4.336 1.244zm2.47-.429c.122-.197-.287-1.807-.536-2.11-.143-.175-1.904 1.024-2.045 1.391-.075.198-.004.493.16.657.35.351 2.212.4 2.42.062zm1.31-.947c.587-.894.541-1.114-.272-1.318-.914-.23-1.131.057-.843 1.11.282 1.03.545 1.08 1.116.208zM3.199 3.847c.733-.233.487-.806-.308-.716-2.015.226-2.356.354-2.356.884 0 .294.125.768.278 1.053.266.498.31.487 1.062-.265.43-.432 1.027-.862 1.324-.956zM6.095 2.41c-.312-.754-.312-.754-1.205-.184-1.117.712-1.034 1.06.295 1.23 1.2.153 1.34-.008.91-1.046zm-3.649.406c.722-.16.722-.16.282-1.083C2.486 1.225 2.2.81 2.096.81 1.859.81.534 2.362.534 2.638c0 .36.35.562.774.449.23-.061.741-.183 1.138-.271zm2.174-.93c.255-.283.388-.635.296-.784C4.733.806 2.97.403 2.762.61c-.2.2.78 1.784 1.104 1.786.16 0 .499-.229.754-.51z" fill="#33a095"/><path d="M1.642 6.36C-1.58 4.395.805-.84 4.385.34c1.92.633 2.818 3.07 1.833 4.977C5.424 6.852 3.26 7.346 1.642 6.36zm2.86-.219c0-.253-.56-1.966-.695-2.128-.048-.058-.566.212-1.151.599-1.065.704-1.354 1.328-.733 1.58.563.226 2.58.187 2.58-.05zm1.176-.892c.586-.837.512-1.229-.269-1.425-.9-.226-1.149.107-.862 1.153.276 1.01.566 1.08 1.131.272zM3.445 3.721c.145 0 .264-.188.264-.418 0-.313-.183-.383-.728-.28-2.406.46-2.447.476-2.447 1 0 .29.127.763.282 1.053.27.504.327.486 1.323-.414.573-.518 1.16-.941 1.306-.941zM6.11 2.317c-.267-.7-.267-.7-1.19-.112-1.147.733-1.073 1.08.265 1.251 1.155.147 1.331-.07.925-1.14zm-3.104.34c.123-.112.01-.543-.25-.959A85.904 85.904 0 012.239.87c-.023-.04-.242.004-.486.098-.442.17-1.22 1.412-1.22 1.949 0 .309 2.088.09 2.473-.26zm1.563-.628c.603-.458.586-.87-.05-1.21C3.933.505 2.56.448 2.704.744c.89 1.827 1.028 1.921 1.866 1.285z" fill="#22988c"/><path d="M1.565 6.29C-.757 4.729-.11 1.074 2.627.289 5.32-.484 7.58 2.683 6.217 5.317c-.815 1.577-3.057 2.047-4.652.974zm2.936-.122c-.004-.502-.572-2.183-.738-2.182-.409.002-1.934 1.087-2.086 1.483a.567.567 0 00.207.655c.45.285 2.62.321 2.617.044zM5.825 4.95c.353-.634.353-.742 0-.967-.493-.316-1.587-.341-1.587-.037 0 .623.627 1.903.89 1.816.165-.055.48-.42.697-.813zm-2.38-1.23c.145 0 .264-.187.264-.417 0-.313-.183-.383-.728-.28-2.406.46-2.447.476-2.447 1 0 .29.127.763.282 1.053.27.504.327.486 1.323-.414.573-.518 1.16-.941 1.306-.941zm2.66-1.56c-.282-.525-.29-.525-1.196.053-1.236.787-1.177 1.195.189 1.294 1.235.09 1.55-.332 1.007-1.347zm-3.1.497c.205-.185.043-.62-.565-1.525-.328-.487-1.067-.12-1.52.755-.607 1.176-.508 1.329.738 1.141.619-.093 1.225-.26 1.348-.371zm1.564-.628c.603-.458.586-.87-.05-1.21C3.933.505 2.56.448 2.704.744c.89 1.827 1.028 1.921 1.866 1.285z" fill="#119083"/><path d="M1.828 6.514C.084 5.53-.362 3.142.892 1.5c1.456-1.909 4.26-1.702 5.344.396 1.106 2.137-.211 4.68-2.536 4.898-.74.069-1.44-.035-1.872-.28zm2.673-.346c-.004-.502-.572-2.183-.738-2.182-.409.002-1.934 1.087-2.086 1.483a.567.567 0 00.207.655c.45.285 2.62.321 2.617.044zM5.98 4.711c.191-.602-.249-.98-1.146-.986-.69-.005-.693.006-.288 1.356.29.969.334 1.002.787.592.264-.24.555-.672.647-.962zm-2.866-.703c1.043-.536.747-1.084-.529-.977-.618.052-.826.04-.463-.025 1.02-.185 1.16-.488.634-1.378C2.153.61 1.779.598 1.08 1.578.466 2.444.368 3.182.865 3.213c.264.017.264.048 0 .155-.408.164-.429 1-.043 1.72.285.533.296.532.992-.117.387-.36.972-.793 1.3-.962zm3.242-.898a2.19 2.19 0 00-.36-1.103c-.348-.477-.38-.474-.976.081-.339.316-.713.574-.83.574-.119 0-.216.172-.216.381 0 .245.354.418.993.485.545.057 1.081.124 1.19.148.11.025.199-.23.199-.566zM4.708 1.986c.759-.531.741-.757-.086-1.133C3.914.53 2.65.434 2.65.703c0 .367.932 1.695 1.19 1.695.154 0 .545-.186.868-.412z" fill="#00887a"/></svg>