<svg xmlns="http://www.w3.org/2000/svg" width="70.1" height="60.358" viewBox="0 0 18.547 15.97"><path d="M0 7.99V.053h18.52v15.875H0z" fill="#fefefe"/><path d="M5.689 15.369c-.583-.309-1.327-.806-1.654-1.106l-.595-.544v.575c0 .316-.12.575-.265.575-.146 0-.265-.476-.265-1.058v-1.058h1.191c1.292 0 1.646.441.463.577-.704.081-.688.108.507.824 2.927 1.754 5.607 1.684 8.436-.22 1.546-1.04 1.574-1.05 1.574-.552 0 .2-.669.825-1.486 1.389-1.461 1.007-1.532 1.025-4.167 1.091-2.302.058-2.83-.012-3.74-.493zM0 11.3c0-.783.16-1.028 1.057-1.622l1.057-.7-.166-1.782c-.148-1.592-.105-1.844.398-2.347.676-.676 1.544-.722 2.393-.128.585.41.614.557.476 2.383-.137 1.807-.106 1.968.428 2.243 1.096.564 1.765 1.37 1.765 2.128 0 .983-.728 1.007-.842.028-.059-.503-.422-.946-1.208-1.473-.888-.594-1.125-.913-1.125-1.514 0-.418.12-.834.265-.924.402-.248.316-1.877-.118-2.237-.21-.174-.657-.278-.992-.23-.584.082-.607.174-.552 2.203l.058 2.116-1.183.718c-.9.547-1.182.877-1.182 1.389 0 .37-.119.671-.264.671-.146 0-.265-.415-.265-.922zm11.112.175c0-.757.67-1.564 1.766-2.128.534-.275.565-.436.428-2.243-.138-1.826-.109-1.973.476-2.383.849-.594 1.717-.548 2.393.128.501.502.548.766.414 2.358L16.439 9l1.04.689c.882.583 1.042.83 1.042 1.611 0 .507-.12.922-.265.922-.145 0-.264-.292-.264-.648 0-.471-.326-.873-1.187-1.466l-1.187-.816.063-2.04.062-2.041h-.794c-.735 0-.805.084-.946 1.138-.083.625-.053 1.198.066 1.272.12.074.218.477.218.895 0 .6-.237.92-1.124 1.514-.787.527-1.15.97-1.208 1.473-.114.98-.843.955-.843-.028zM13.23 3.11c0-.25.234-.412.595-.413.553-.002.54-.04-.198-.54-3.197-2.17-6.131-1.99-9.71.594-.946.683-.825-.148.144-.989C5.39.608 7.092.05 9.241.064c2 .014 3.335.423 4.65 1.426.901.687.926.691.926.141 0-.334.135-.52.33-.454.19.063.331.553.331 1.147 0 1.03-.007 1.036-1.124 1.117-.877.064-1.125-.01-1.125-.33z" fill="#f9f9f9"/><path d="M5.82 15.389c-.654-.304-1.458-.804-1.785-1.111l-.595-.56v.576c0 .316-.12.575-.265.575-.146 0-.265-.476-.265-1.058v-1.058h1.06c1.123 0 1.467.432.463.58-.513.075-.424.19.639.824 3.034 1.81 6.063 1.642 8.86-.492.978-.745 1.15-.788 1.15-.283 0 .2-.669.825-1.486 1.389-1.445.995-1.56 1.026-4.035 1.097-2.129.06-2.745-.018-3.74-.48zM0 11.3c0-.783.16-1.028 1.062-1.625l1.062-.703-.168-1.64c-.105-1.02-.057-1.846.126-2.19.42-.784 1.739-1.015 2.595-.454.662.434.681.519.539 2.406-.138 1.817-.107 1.978.427 2.253 1.096.564 1.765 1.37 1.765 2.128 0 .983-.728 1.007-.842.028-.059-.503-.422-.946-1.208-1.473-.888-.594-1.125-.913-1.125-1.514 0-.418.12-.834.265-.924.402-.248.316-1.877-.118-2.237-.21-.174-.657-.278-.992-.23-.584.082-.607.174-.552 2.203l.058 2.116-1.183.718c-.9.547-1.182.877-1.182 1.389 0 .37-.119.671-.264.671-.146 0-.265-.415-.265-.922zm11.112.123c0-.644.227-.959 1.173-1.625l1.172-.826-.15-1.78c-.132-1.576-.084-1.842.416-2.343.31-.31.862-.564 1.226-.564s.915.254 1.226.564c.501.502.548.766.414 2.358L16.439 9l1.04.689c.882.583 1.042.83 1.042 1.611 0 1.085-.456 1.247-.578.206-.057-.49-.42-.946-1.142-1.437l-1.058-.72V5.211h-.794c-.735 0-.805.085-.946 1.139-.083.625-.053 1.198.066 1.272.12.074.218.477.218.895 0 .6-.237.92-1.124 1.514-.787.527-1.15.97-1.208 1.473-.118 1.014-.843.946-.843-.08zM13.23 3.11c0-.25.234-.413.595-.415 1.07-.006-1.665-1.551-3.337-1.887-1.28-.257-1.779-.234-3.16.147-.9.248-2.078.801-2.615 1.23-1.428 1.137-2.21.964-.942-.21 2.434-2.251 6.958-2.593 9.72-.734 1.18.794 1.327.836 1.327.381 0-.727.488-.634.68.13.31 1.236.062 1.602-1.146 1.69-.874.063-1.122-.01-1.122-.332z" fill="#f5f5f5"/><path d="M5.82 15.376c-.654-.297-1.458-.791-1.785-1.098l-.595-.56v.576c0 .316-.12.575-.265.575-.146 0-.265-.476-.265-1.058v-1.058h1.06c1.123 0 1.467.432.463.58-.513.075-.424.19.639.824 3.035 1.81 6.063 1.642 8.862-.493.57-.435.911-.552 1.033-.354.219.353-.929 1.343-2.416 2.082-1.513.753-5.051.745-6.73-.016zM0 11.301c0-.784.16-1.028 1.067-1.628l1.067-.706-.177-1.563c-.121-1.07-.07-1.763.162-2.196.456-.852 1.673-1.099 2.558-.519.662.434.681.519.539 2.406-.138 1.817-.107 1.978.427 2.253 1.096.564 1.765 1.37 1.765 2.128 0 .983-.728 1.007-.842.028-.059-.506-.424-.948-1.233-1.49-1.05-.703-1.135-.84-.977-1.595.578-2.774.37-3.483-.968-3.293-.584.082-.607.174-.552 2.203l.058 2.116-1.183.718c-.9.547-1.182.877-1.182 1.389 0 .37-.119.671-.264.671-.146 0-.265-.415-.265-.922zm11.112.376c0-.838.434-1.468 1.436-2.087l.913-.565-.151-1.805c-.137-1.627-.093-1.863.44-2.397.462-.461.777-.556 1.425-.429 1.292.254 1.565.812 1.387 2.834l-.155 1.752 1.057.7c.897.593 1.057.838 1.057 1.621 0 1.085-.456 1.247-.578.206-.057-.49-.42-.946-1.142-1.437l-1.058-.72V5.211h-.794c-.735 0-.805.085-.946 1.139-.083.625-.053 1.198.066 1.272.12.074.218.477.218.895 0 .6-.237.92-1.124 1.514-.787.527-1.15.97-1.208 1.473-.098.839-.843.992-.843.173zm2.117-8.582c0-.235.243-.397.595-.398 1.027-.002-1.587-1.535-3.181-1.866-2.19-.454-5.092.293-6.293 1.62-.495.547-1.175.687-1.175.242 0-.357 2.19-1.896 3.259-2.29 1.21-.445 4.156-.418 5.487.052.627.22 1.535.703 2.018 1.071.844.644.878.65.878.128 0-.87.456-.626.596.317.188 1.266-.006 1.521-1.154 1.521-.739 0-1.03-.112-1.03-.397z" fill="#f1f1f1"/><path d="M5.82 15.376c-.654-.297-1.458-.791-1.785-1.098l-.595-.56v.576c0 .316-.12.575-.265.575-.146 0-.265-.476-.265-1.058v-1.058h1.06c.582 0 1.058.119 1.058.264 0 .146-.268.269-.595.273-.59.008-.59.013-.066.426a7.645 7.645 0 009.443.059c.644-.5 1.038-.658 1.158-.464.223.36-.954 1.353-2.463 2.078-1.568.753-5.007.747-6.683-.013zM0 11.301c0-.783.16-1.028 1.057-1.622l1.057-.7-.165-1.771c-.158-1.708-.138-1.793.566-2.347.876-.689 1.392-.721 2.224-.139.583.409.614.56.479 2.347l-.145 1.91 1.168.823c.94.663 1.167.978 1.167 1.622 0 .534-.131.8-.397.8-.258 0-.396-.26-.396-.746 0-.593-.215-.865-1.058-1.339-1.148-.645-1.543-1.51-1.082-2.371.407-.76.356-2.037-.095-2.412-.21-.174-.657-.278-.992-.23-.577.081-.61.196-.61 2.155V9.35l-1.058.72c-.722.49-1.085.948-1.142 1.437C.456 12.548 0 12.387 0 11.3zm11.112.376c0-.838.434-1.468 1.436-2.087l.913-.565-.151-1.805c-.137-1.627-.093-1.863.44-2.397.462-.461.777-.556 1.425-.429 1.292.254 1.565.812 1.387 2.834l-.155 1.752 1.057.7c.897.593 1.057.838 1.057 1.621 0 1.085-.456 1.247-.578.206-.057-.49-.42-.946-1.142-1.437l-1.058-.72V7.281c0-1.974-.029-2.073-.626-2.158-.344-.048-.739.025-.877.162-.34.34-.488 2.141-.19 2.324.13.081.237.49.237.908 0 .6-.236.92-1.124 1.514-.786.527-1.15.97-1.208 1.473-.098.839-.843.992-.843.173zm2.117-8.563c0-.208.246-.417.546-.463.874-.136-1.391-1.458-3.107-1.814-2.213-.46-5.111.28-6.318 1.614-.486.537-1.175.69-1.175.26 0-.367 1.556-1.492 2.918-2.11 2.268-1.029 5.835-.608 7.846.925.844.644.878.65.878.128 0-.897.463-.612.576.354.153 1.31.02 1.484-1.128 1.484-.722 0-1.036-.114-1.036-.378z" fill="#ededed"/><path d="M5.82 15.376c-.654-.297-1.458-.791-1.785-1.098l-.595-.56v.576c0 .316-.12.575-.265.575-.146 0-.265-.476-.265-1.058v-1.058h1.06c.582 0 1.058.119 1.058.264 0 .146-.268.269-.595.273-.59.008-.59.013-.066.426 2.764 2.18 6.784 2.217 9.443.084.657-.527 1.037-.684 1.162-.482.234.378-.688 1.132-2.403 1.963-1.768.857-4.967.902-6.747.095zM0 11.301c0-.783.16-1.028 1.057-1.622l1.057-.7-.165-1.771c-.158-1.708-.138-1.793.566-2.347.876-.689 1.392-.721 2.224-.139.583.409.614.56.479 2.347l-.145 1.91 1.168.823c.94.663 1.167.978 1.167 1.622 0 .534-.131.8-.397.8-.258 0-.396-.26-.396-.746 0-.597-.216-.866-1.087-1.355l-1.086-.61.178-1.905c.197-2.103-.073-2.647-1.232-2.483-.577.082-.61.197-.61 2.156V9.35l-1.058.72c-.722.49-1.085.948-1.142 1.437C.456 12.548 0 12.387 0 11.3zm11.235.643c-.353-.572.184-1.593 1.188-2.257L13.459 9l-.14-1.762c-.171-2.173.184-2.794 1.597-2.794 1.437 0 1.807.63 1.633 2.783l-.142 1.752 1.057.7c.897.593 1.057.838 1.057 1.621 0 1.085-.456 1.247-.578.206-.057-.49-.42-.946-1.142-1.437l-1.058-.72V7.281c0-1.959-.033-2.074-.61-2.156-.336-.047-.782.057-.992.231-.434.36-.52 1.989-.118 2.237.145.09.264.506.264.924 0 .6-.236.92-1.124 1.514-.786.527-1.15.97-1.208 1.473-.086.737-.412.937-.72.44zM13.23 3.13c0-.217.246-.433.546-.48.874-.135-1.391-1.457-3.107-1.813-2.213-.46-5.111.28-6.318 1.614-.486.537-1.175.69-1.175.26 0-.367 1.556-1.492 2.918-2.11 2.268-1.029 5.835-.608 7.846.925.844.644.878.65.878.128 0-.299.126-.543.28-.543.165 0 .246.46.198 1.124-.08 1.092-.11 1.127-1.074 1.207-.74.061-.992-.018-.992-.312z" fill="#e9e9e9"/><path d="M5.82 15.376c-.654-.297-1.458-.791-1.785-1.098l-.595-.56v.576c0 .316-.12.575-.265.575-.146 0-.265-.476-.265-1.058v-1.058h1.06c.582 0 1.058.119 1.058.264 0 .146-.268.269-.595.273-.59.008-.59.013-.066.426 2.764 2.18 6.784 2.217 9.443.084.584-.468 1.044-.673 1.145-.51.227.367-.781 1.207-2.386 1.988-1.766.86-4.964.907-6.747.098zM0 11.333c0-.74.179-1.014 1.057-1.622l1.057-.733-.165-1.77c-.158-1.708-.138-1.793.566-2.347.922-.725 1.565-.728 2.283-.01.502.501.548.765.413 2.37L5.06 9.025l.913.564c.502.31 1.03.784 1.174 1.052.391.73.318 1.581-.136 1.581-.258 0-.396-.259-.396-.745 0-.596-.216-.866-1.087-1.355l-1.086-.61.178-1.905c.197-2.103-.073-2.647-1.232-2.482-.577.081-.61.196-.61 2.155v2.07l-1.058.719c-.722.49-1.085.948-1.142 1.437-.12 1.025-.578.887-.578-.174zm11.235.61c-.353-.571.184-1.592 1.188-2.256L13.459 9l-.14-1.762c-.154-1.957.107-2.548 1.245-2.821.473-.114.895.013 1.422.428.727.571.745.645.586 2.362l-.165 1.772 1.057.7c.897.593 1.057.838 1.057 1.621 0 1.085-.456 1.247-.578.206-.057-.49-.42-.946-1.142-1.437l-1.058-.72V7.281c0-1.959-.033-2.074-.61-2.156-.336-.047-.782.057-.992.231-.434.36-.52 1.989-.118 2.237.145.09.264.506.264.924 0 .6-.236.92-1.124 1.514-.786.527-1.15.97-1.208 1.473-.086.737-.412.937-.72.44zm2.183-8.615c-.357-.357-.188-.63.392-.63.51 0 .471-.08-.331-.672C11.959.903 9.953.45 7.98.786c-1.503.256-2.265.628-4.17 2.035-.19.14-.43.171-.532.068-.324-.323.71-1.217 2.361-2.042 2.602-1.3 5.56-1.095 8.053.558 1.042.691 1.125.708 1.125.226 0-.286.126-.52.28-.52.165 0 .246.46.198 1.124-.075 1.038-.144 1.131-.885 1.204-.442.043-.888-.006-.992-.11z" fill="#e4e4e4"/><path d="M5.82 15.376c-.654-.297-1.458-.791-1.785-1.098l-.595-.56v.576c0 .316-.12.575-.265.575-.146 0-.265-.476-.265-1.058v-1.058h1.06c.582 0 1.058.119 1.058.264 0 .146-.268.269-.595.273-.59.008-.59.013-.066.426 2.764 2.18 6.784 2.217 9.443.084.584-.468 1.044-.673 1.145-.51.227.367-.781 1.207-2.386 1.988-1.766.86-4.964.907-6.747.098zM0 11.333c0-.74.179-1.014 1.057-1.622l1.057-.733-.165-1.77c-.16-1.717-.14-1.79.585-2.362.528-.415.95-.542 1.423-.428 1.14.274 1.399.863 1.243 2.833l-.14 1.774.913.565c.502.31 1.03.784 1.174 1.052.391.73.318 1.581-.136 1.581-.257 0-.396-.257-.396-.73 0-.572-.236-.876-1.08-1.39l-1.079-.658.172-1.87c.189-2.067-.088-2.613-1.24-2.45-.577.082-.61.197-.61 2.156V9.35l-1.058.72c-.722.49-1.085.948-1.142 1.437-.12 1.025-.578.887-.578-.174zm11.235.61c-.355-.574.186-1.593 1.204-2.267l1.052-.696-.155-1.752c-.172-1.948.085-2.536 1.228-2.81.473-.114.895.013 1.422.428.727.571.745.645.586 2.362l-.165 1.772 1.057.7c.897.593 1.057.838 1.057 1.621 0 1.087-.456 1.247-.578.203-.059-.503-.422-.946-1.208-1.473-.888-.594-1.125-.913-1.125-1.514 0-.418.099-.82.218-.895.12-.074.15-.647.066-1.272-.124-.932-.262-1.154-.761-1.225-.336-.047-.782.057-.992.231-.434.36-.52 1.989-.118 2.237.145.09.264.517.264.948 0 .647-.208.911-1.19 1.504-.95.574-1.19.867-1.19 1.449 0 .734-.35.969-.672.45zm2.183-8.615c-.357-.357-.188-.63.392-.63.511 0 .472-.08-.328-.67-1.024-.755-3.107-1.446-4.36-1.446-1.359 0-3.3.704-4.419 1.603-.696.56-1.132.75-1.308.574-.177-.176.032-.49.625-.943 3.052-2.328 6.893-2.39 10.022-.162l.775.551v-.547c0-.3.126-.547.28-.547.165 0 .246.46.198 1.124-.075 1.038-.144 1.13-.885 1.204-.442.043-.888-.006-.992-.11z" fill="#ddd"/><path d="M6.097 15.51c-.503-.218-1.306-.696-1.786-1.061-.839-.64-.871-.645-.871-.122 0 .298-.12.542-.265.542-.146 0-.265-.476-.265-1.058v-1.058h1.06c1.123 0 1.466.43.463.582-.535.08-.487.158.463.767 1.47.943 2.627 1.296 4.24 1.296 1.716 0 3.398-.575 4.674-1.598 1.079-.865 1.718-.592.697.298-1.422 1.24-3.154 1.825-5.378 1.817-1.281-.005-2.477-.165-3.03-.405zM0 11.333c0-.747.172-1.005 1.06-1.593l1.06-.701-.168-1.802c-.163-1.75-.146-1.818.582-2.391.528-.415.95-.542 1.423-.428 1.14.274 1.399.863 1.243 2.833l-.14 1.774.913.565c.502.31 1.03.784 1.174 1.052.391.73.318 1.581-.136 1.581-.257 0-.396-.257-.396-.73 0-.572-.236-.876-1.08-1.39l-1.079-.658.172-1.87c.189-2.067-.088-2.613-1.24-2.45-.577.082-.61.197-.61 2.156V9.35l-1.058.72c-.722.49-1.085.948-1.142 1.437-.12 1.025-.578.887-.578-.174zm11.235.61c-.355-.574.186-1.593 1.204-2.267l1.052-.696-.155-1.752c-.172-1.948.085-2.536 1.228-2.81.473-.114.895.013 1.422.428.727.571.745.645.586 2.361l-.165 1.771 1.057.733c.878.608 1.057.883 1.057 1.622 0 1.063-.458 1.198-.578.17-.059-.502-.422-.945-1.208-1.472-.888-.594-1.125-.913-1.125-1.514 0-.418.099-.82.218-.895.12-.074.15-.647.066-1.272-.124-.932-.262-1.154-.761-1.225-1.342-.19-1.545.51-.964 3.317.164.795.096.897-1.044 1.586-.976.59-1.219.882-1.219 1.466 0 .734-.35.969-.67.45zm2.183-8.615c-.357-.357-.188-.63.392-.63.511 0 .472-.08-.328-.67-1.024-.755-3.107-1.446-4.36-1.446-1.359 0-3.3.704-4.419 1.603-.696.56-1.132.75-1.308.574-.177-.176.032-.49.625-.943 3.052-2.328 6.893-2.39 10.022-.162l.775.551v-.547c0-.3.126-.547.28-.547.165 0 .246.46.198 1.124-.075 1.038-.144 1.13-.885 1.204-.442.043-.888-.006-.992-.11z" fill="#d9d9d9"/><path d="M6.097 15.51c-.503-.218-1.306-.696-1.786-1.061-.839-.64-.871-.645-.871-.122 0 .298-.12.542-.265.542-.146 0-.265-.476-.265-1.058v-1.058h1.06c.582 0 1.058.119 1.058.264 0 .146-.268.269-.595.274-.566.01-.556.042.198.659 2.342 1.915 6.507 1.91 9.026-.012 1.137-.867 1.688-.841.876.04-1.178 1.28-3.037 1.945-5.404 1.937-1.281-.005-2.477-.165-3.03-.405zM0 11.333c0-.747.172-1.005 1.06-1.593l1.06-.701-.168-1.802c-.163-1.75-.146-1.818.582-2.391.528-.415.95-.542 1.423-.428 1.138.273 1.399.864 1.244 2.82l-.14 1.763 1.037.686c1.004.664 1.541 1.685 1.187 2.257-.32.52-.67.284-.67-.452 0-.571-.236-.875-1.08-1.389l-1.079-.658.172-1.87c.189-2.067-.088-2.613-1.24-2.45-.577.082-.61.197-.61 2.156V9.35l-1.058.72c-.722.49-1.085.948-1.142 1.437-.12 1.025-.578.887-.578-.174zm11.31.692c-.055-.11-.077-.347-.05-.53.028-.181.066-.507.084-.723.018-.216.509-.708 1.09-1.093l1.057-.7-.165-1.771c-.158-1.708-.138-1.793.567-2.347.913-.719 1.199-.719 2.112 0 .705.554.725.64.567 2.346l-.165 1.771 1.057.733c.878.608 1.057.883 1.057 1.622 0 1.063-.458 1.198-.578.17-.059-.502-.422-.945-1.208-1.472-.888-.594-1.125-.913-1.125-1.514 0-.418.092-.817.204-.886.24-.149.196-1.854-.059-2.267-.236-.382-1.284-.362-1.68.033-.395.396-.41 1.658-.03 2.37.45.84.092 1.62-1.07 2.336-.832.512-1.069.82-1.069 1.39 0 .673-.364.998-.597.532zm2.108-8.697c-.357-.357-.188-.63.392-.63.511 0 .472-.08-.328-.67C12.46 1.275 10.376.583 9.128.583c-1.399 0-3.53.773-4.515 1.638-.644.565-1.021.736-1.21.548-.187-.188.005-.485.617-.952 3.052-2.328 6.893-2.39 10.022-.162l.775.551v-.547c0-.3.126-.547.28-.547.165 0 .246.46.198 1.124-.075 1.038-.144 1.13-.885 1.204-.442.043-.888-.006-.992-.11z" fill="#d6d6d6"/><path d="M6.097 15.51c-.503-.218-1.306-.696-1.786-1.061-.839-.64-.871-.645-.871-.122 0 .298-.12.542-.265.542-.146 0-.265-.476-.265-1.058v-1.058h1.06c.582 0 1.058.119 1.058.264 0 .146-.268.269-.595.274-.566.01-.556.042.198.659 2.342 1.915 6.507 1.91 9.026-.012 1.137-.867 1.688-.841.876.04-1.178 1.28-3.037 1.945-5.404 1.937-1.281-.005-2.477-.165-3.03-.405zM0 11.333c0-.748.172-1.005 1.065-1.596l1.065-.705-.173-1.69c-.163-1.59-.132-1.73.536-2.398.555-.555.864-.671 1.423-.537 1.18.285 1.441.858 1.285 2.832L5.061 9l1.037.686c1.004.664 1.541 1.685 1.187 2.257-.32.52-.67.284-.67-.452 0-.571-.236-.875-1.08-1.389l-1.079-.658.172-1.87c.189-2.067-.088-2.613-1.24-2.45-.577.082-.61.197-.61 2.156v2.07l-1.058.72c-.722.49-1.085.948-1.142 1.437-.12 1.025-.578.887-.578-.174zm11.334.76c-.071-.072-.079-.481-.016-.91.078-.535.436-1 1.144-1.491l1.029-.714-.165-1.77c-.158-1.708-.138-1.793.567-2.347.913-.719 1.2-.719 2.112 0 .705.554.725.64.567 2.346l-.165 1.771 1.057.733c.878.608 1.057.883 1.057 1.622 0 .49-.12.89-.265.89-.145 0-.264-.328-.264-.73 0-.58-.242-.874-1.19-1.448-.983-.593-1.192-.857-1.192-1.504 0-.431.108-.85.239-.932.254-.157.18-1.801-.101-2.257-.23-.372-1.283-.344-1.672.045-.36.36-.419 1.76-.096 2.269.466.734.013 1.805-1.038 2.455-.8.494-1.036.806-1.036 1.371 0 .67-.245.927-.571.6zm2.084-8.765c-.357-.357-.188-.63.392-.63.51 0 .471-.08-.331-.672C10.86.092 6.515.284 4.277 2.432c-.412.396-.705.505-.882.328-.291-.292.842-1.253 2.414-2.05C6.835.19 9.535-.104 10.91.154c.5.094 1.582.577 2.407 1.074 1.345.81 1.5.85 1.5.393 0-.28.126-.51.28-.51.165 0 .246.46.198 1.124-.075 1.038-.144 1.13-.885 1.204-.442.043-.888-.006-.992-.11z" fill="#d1d1d1"/><path d="M6.097 15.51c-.503-.218-1.306-.696-1.786-1.061-.839-.64-.871-.645-.871-.122 0 .298-.12.542-.265.542-.146 0-.265-.476-.265-1.058v-1.058h1.06c.582 0 1.058.119 1.058.264 0 .146-.268.269-.595.274-.566.01-.556.042.198.659 2.342 1.915 6.507 1.91 9.026-.012 1.137-.867 1.688-.841.876.04-1.178 1.28-3.037 1.945-5.404 1.937-1.281-.005-2.477-.165-3.03-.405zM0 11.333c0-.748.172-1.005 1.065-1.596l1.065-.705-.173-1.69c-.163-1.59-.132-1.73.536-2.398.555-.555.864-.671 1.423-.537 1.185.286 1.442.857 1.268 2.821L5.03 8.98l1.052.696c1.018.674 1.559 1.693 1.203 2.268-.322.522-.67.282-.67-.461 0-.582-.23-.88-1.07-1.39l-1.071-.648.162-1.87c.18-2.066-.099-2.612-1.248-2.45-.577.082-.61.197-.61 2.156V9.35l-1.058.72c-.722.49-1.085.948-1.142 1.437-.12 1.025-.578.887-.578-.174zm11.377 0c0-.74.179-1.014 1.057-1.622l1.057-.733-.165-1.77c-.158-1.708-.138-1.793.567-2.347.913-.719 1.2-.719 2.112 0 .707.555.726.635.564 2.376L16.4 9.04l1.06.701c.888.588 1.06.846 1.06 1.593 0 .49-.12.89-.265.89-.145 0-.264-.328-.264-.73 0-.583-.243-.875-1.22-1.465-1.075-.65-1.2-.821-1.067-1.453.083-.395.226-1.09.318-1.547.217-1.073-.255-1.948-1.051-1.948-1.03 0-1.268.564-1.076 2.562l.173 1.803-1.081.658c-.846.515-1.082.817-1.082 1.39 0 .401-.119.73-.264.73-.146 0-.265-.4-.265-.89zm2.029-8.017c-.348-.348-.167-.618.418-.623l.596-.006-.662-.52C12.8 1.411 10.458.581 9.293.581c-1.464 0-3.399.651-4.69 1.579-1.314.943-1.857.621-.573-.34C5.524.703 6.67.25 8.363.116c2.203-.177 3.177.041 4.954 1.111 1.345.81 1.5.85 1.5.394 0-.28.119-.51.264-.51.146 0 .265.462.265 1.027 0 .842-.108 1.057-.595 1.187-.78.209-1.13.206-1.345-.01z" fill="#cdcdcd"/><path d="M6.097 15.51c-.503-.218-1.306-.696-1.786-1.061-.839-.64-.871-.645-.871-.122 0 .298-.12.542-.265.542-.146 0-.265-.476-.265-1.058v-1.058h1.06c.582 0 1.058.119 1.058.264 0 .146-.268.269-.595.274-.566.01-.556.042.198.659 2.34 1.913 6.488 1.924 8.979.024 1.176-.896 1.75-.894.923.004-1.178 1.28-3.037 1.945-5.404 1.937-1.281-.005-2.477-.165-3.03-.405zM0 11.333c0-.748.172-1.005 1.07-1.6l1.07-.708-.174-1.537c-.19-1.68.071-2.47.974-2.954.762-.407 2.044.151 2.253.98.087.349.08 1.266-.017 2.04L5 8.96l1.067.706c1.031.683 1.575 1.7 1.218 2.278-.322.522-.67.282-.67-.461 0-.582-.23-.88-1.07-1.39l-1.071-.648.162-1.87c.18-2.066-.099-2.612-1.248-2.45-.577.082-.61.197-.61 2.156V9.35l-1.058.72c-.722.49-1.085.948-1.142 1.437-.12 1.025-.578.887-.578-.174zm11.377 0c0-.74.179-1.014 1.057-1.622l1.057-.733-.165-1.77c-.158-1.708-.138-1.793.567-2.347.913-.719 1.2-.719 2.112 0 .707.555.726.635.564 2.376L16.4 9.04l1.06.701c.888.588 1.06.846 1.06 1.593 0 .49-.12.89-.265.89-.145 0-.264-.328-.264-.73 0-.583-.243-.875-1.22-1.465-1.138-.688-1.207-.792-1.045-1.586.564-2.764.426-3.362-.778-3.362-1.007 0-1.244.575-1.053 2.562l.173 1.803-1.081.658c-.846.515-1.082.817-1.082 1.39 0 .401-.119.73-.264.73-.146 0-.265-.4-.265-.89zm2.037-8.009c-.356-.355-.18-.626.41-.631l.596-.006-.662-.52C12.8 1.411 10.458.581 9.293.581c-1.464 0-3.399.651-4.69 1.579-1.314.943-1.838.647-.566-.32C5.527.709 6.674.25 8.363.116c2.203-.177 3.177.041 4.954 1.111 1.345.81 1.5.85 1.5.394 0-.28.119-.51.264-.51.146 0 .265.476.265 1.058 0 .867-.092 1.058-.508 1.058-.279 0-.672.064-.873.141-.202.077-.45.057-.551-.044z" fill="#c8c8c8"/><path d="M6.097 15.51c-.503-.218-1.306-.696-1.786-1.061-.839-.64-.871-.645-.871-.122 0 .298-.12.542-.265.542-.146 0-.265-.476-.265-1.058v-1.058h1.06c1.123 0 1.467.431.463.58-.536.08-.487.162.484.818 2.603 1.758 6.253 1.684 8.693-.177 1.176-.897 1.75-.894.923.004-1.178 1.28-3.037 1.945-5.404 1.937-1.281-.005-2.477-.165-3.03-.405zM.004 11.496c.005-.891.156-1.117 1.263-1.89.857-.599.868-.632.698-2.132-.188-1.664.075-2.458.975-2.94.762-.407 2.044.151 2.253.98.087.349.08 1.266-.017 2.04L5 8.96l1.067.706c1.031.683 1.575 1.7 1.218 2.278-.33.533-.67.275-.67-.506 0-.644-.195-.895-1.077-1.39l-1.076-.603.169-1.87c.185-2.066-.092-2.613-1.243-2.45-.577.082-.61.197-.61 2.156V9.35l-1.058.72c-.722.49-1.085.948-1.142 1.437-.11.938-.58.929-.574-.011zm11.373-.163c0-.74.179-1.014 1.057-1.622l1.057-.733-.165-1.77c-.158-1.708-.138-1.793.567-2.347.913-.719 1.2-.719 2.112 0 .707.555.726.635.564 2.376L16.4 9.04l1.06.701c.888.588 1.06.846 1.06 1.593 0 .49-.12.89-.265.89-.145 0-.265-.327-.265-.727 0-.577-.253-.887-1.215-1.495-1.118-.707-1.2-.832-1.045-1.588.561-2.723.418-3.333-.782-3.333-1.007 0-1.244.575-1.053 2.562l.173 1.803-1.081.658c-.846.515-1.082.817-1.082 1.39 0 .401-.119.73-.264.73-.146 0-.265-.4-.265-.89zm1.976-8.07c-.298-.298-.078-.565.471-.57l.596-.006-.662-.52C12.8 1.411 10.458.581 9.293.581c-1.464 0-3.399.651-4.69 1.579-1.314.943-1.838.647-.566-.32C5.45.767 6.597.28 8.072.128c2.075-.214 3.596.107 5.258 1.107 1.335.804 1.487.843 1.487.386 0-.28.119-.51.264-.51.146 0 .265.463.265 1.03 0 .98-.044 1.034-.934 1.138-.514.06-.99.053-1.059-.016z" fill="#c6c6c6"/><path d="M6.097 15.51c-.503-.218-1.306-.696-1.786-1.061-.839-.64-.871-.645-.871-.122 0 .298-.12.542-.265.542-.146 0-.265-.476-.265-1.058v-1.058h1.06c1.123 0 1.467.431.463.58-.536.08-.487.162.484.818 2.655 1.793 6.226 1.705 8.744-.216 1.134-.864 1.683-.837.872.043-1.178 1.28-3.037 1.945-5.404 1.937-1.281-.005-2.477-.165-3.03-.405zM.004 11.496c.005-.891.156-1.117 1.263-1.89.857-.599.868-.632.698-2.132-.188-1.664.075-2.458.975-2.94.762-.407 2.044.151 2.253.98.087.349.08 1.266-.017 2.039L5 8.958l1.077.746c1.048.726 1.559 1.673 1.208 2.24-.33.533-.67.275-.67-.506 0-.644-.195-.895-1.077-1.39l-1.076-.603.168-1.87c.186-2.066-.09-2.613-1.242-2.45-.5.071-.637.293-.762 1.225-.083.625-.053 1.198.066 1.272.12.074.218.474.218.889 0 .605-.234.901-1.19 1.505-.939.594-1.19.906-1.19 1.48 0 .4-.12.727-.265.727-.146 0-.263-.327-.26-.727zm11.373-.163c0-.747.172-1.005 1.06-1.593l1.06-.701-.168-1.802c-.162-1.74-.143-1.82.564-2.376.913-.719 1.2-.719 2.112 0 .707.555.726.635.564 2.376L16.4 9.04l1.06.701c.888.588 1.06.846 1.06 1.593 0 .49-.12.89-.265.89-.145 0-.264-.329-.264-.73 0-.57-.237-.878-1.069-1.39-1.162-.715-1.52-1.496-1.07-2.335.38-.713.365-1.975-.03-2.37-.176-.175-.578-.318-.895-.318-.982 0-1.22.587-1.04 2.562l.164 1.803-1.073.649c-.844.51-1.073.806-1.073 1.389 0 .407-.119.74-.264.74-.146 0-.265-.4-.265-.89zm1.852-8.37c0-.146.268-.267.595-.27l.596-.006-.662-.52C12.748 1.371 10.435.581 9.121.581c-1.428 0-3.429.726-4.724 1.714-.694.529-.957.622-.957.337 0-.48 1.733-1.712 3.095-2.198C7.727.01 10.077-.049 11.386.315c.515.143 1.497.616 2.183 1.051 1.153.731 1.248.752 1.248.268 0-.288.119-.523.264-.523.146 0 .265.476.265 1.058v1.058h-1.059c-.582 0-1.058-.119-1.058-.264z" fill="#c1c1c1"/><path d="M6.097 15.51c-.503-.218-1.306-.696-1.786-1.061-.839-.64-.871-.645-.871-.122 0 .298-.12.542-.265.542-.146 0-.265-.476-.265-1.058v-1.058h1.06c.582 0 1.058.119 1.058.264 0 .146-.253.265-.561.265-.837 0-.224.619 1.429 1.442 1.843.919 4.503.94 6.408.053.728-.34 1.486-.815 1.686-1.056.2-.242.548-.44.774-.44.685 0-.66 1.237-2.16 1.984-1.096.546-1.704.66-3.46.652-1.29-.006-2.493-.167-3.046-.407zM0 11.44c0-.813.75-1.729 1.648-2.014.444-.14.478-.343.322-1.924-.147-1.499-.1-1.852.317-2.336.754-.875 1.493-.973 2.335-.31.712.56.731.641.573 2.351L5.03 8.978l1.037.72c1.107.767 1.344 1.13 1.233 1.887-.124.843-.685.74-.685-.125 0-.67-.185-.912-1.077-1.412l-1.076-.603.168-1.87c.186-2.066-.09-2.613-1.242-2.45-.5.071-.637.293-.762 1.225-.083.625-.053 1.198.066 1.272.12.074.218.474.218.889 0 .605-.234.901-1.19 1.505-.939.594-1.19.906-1.19 1.48 0 .4-.12.727-.265.727-.146 0-.265-.352-.265-.783zm11.377-.107c0-.747.172-1.005 1.06-1.593l1.06-.701-.168-1.802c-.162-1.74-.143-1.82.564-2.376.945-.744 1.327-.725 2.16.109.64.638.673.795.511 2.373l-.173 1.69 1.065.704c.893.591 1.065.848 1.065 1.596 0 .49-.12.89-.265.89-.145 0-.264-.331-.264-.736 0-.536-.214-.863-.784-1.2-1.191-.704-1.539-1.147-1.423-1.818.487-2.837.351-3.39-.836-3.39-1.004 0-1.243.577-1.062 2.563l.165 1.803-1.073.649c-.844.51-1.073.806-1.073 1.389 0 .407-.119.74-.264.74-.146 0-.265-.4-.265-.89zM13.23 2.98c0-.135.268-.285.595-.334.513-.075.425-.19-.639-.824-.679-.405-1.63-.85-2.115-.989-2.098-.6-4.723-.025-6.674 1.463-.694.529-.957.622-.957.338 0-.482 1.733-1.714 3.095-2.2C7.727.01 10.077-.048 11.386.316c.515.143 1.497.616 2.183 1.051 1.153.731 1.248.752 1.248.268 0-.288.119-.523.264-.523.146 0 .265.476.265 1.058v1.059h-1.059c-.582 0-1.058-.111-1.058-.247z" fill="#bcbcbc"/><path d="M6.097 15.51c-.503-.218-1.306-.696-1.786-1.061-.839-.64-.871-.645-.871-.122 0 .298-.12.542-.265.542-.146 0-.265-.476-.265-1.058v-1.058h1.06c.582 0 1.058.119 1.058.264 0 .146-.253.265-.561.265-.837 0-.224.619 1.429 1.442 1.843.919 4.503.94 6.408.053.728-.34 1.486-.815 1.686-1.056.2-.242.548-.44.774-.44.685 0-.66 1.237-2.16 1.984-1.096.546-1.704.66-3.46.652-1.29-.006-2.493-.167-3.046-.407zM0 11.44c0-.813.75-1.729 1.648-2.014.444-.14.478-.343.322-1.924-.147-1.499-.1-1.852.317-2.336.754-.875 1.493-.973 2.335-.31.714.561.732.637.57 2.381L5.024 9.04l1.06.701c.74.49 1.06.89 1.06 1.328v.825c0 .109-.12.238-.265.286-.145.049-.264-.275-.264-.72 0-.67-.184-.91-1.079-1.41l-1.078-.604.17-1.803c.116-1.234.07-1.924-.145-2.183-.369-.445-1.464-.505-1.717-.095-.255.413-.3 2.118-.06 2.267.113.069.204.465.204.88 0 .605-.234.901-1.19 1.505-.939.594-1.19.906-1.19 1.48 0 .4-.12.727-.265.727-.146 0-.265-.352-.265-.783zm11.377-.107c0-.747.172-1.005 1.06-1.593l1.06-.701-.168-1.802c-.162-1.74-.143-1.82.564-2.376.945-.744 1.327-.725 2.16.109.64.638.673.795.511 2.373l-.173 1.69 1.065.704c.893.591 1.065.848 1.065 1.596 0 .49-.12.89-.265.89-.145 0-.264-.329-.264-.73 0-.566-.236-.878-1.036-1.372-1.051-.65-1.504-1.721-1.038-2.455.323-.51.264-1.91-.096-2.269-.175-.174-.577-.317-.894-.317-.982 0-1.22.587-1.04 2.562l.164 1.803-1.073.649c-.844.51-1.073.806-1.073 1.389 0 .407-.119.74-.264.74-.146 0-.265-.4-.265-.89zM13.23 2.98c0-.135.268-.285.595-.334.513-.075.425-.19-.639-.824-.679-.405-1.63-.85-2.115-.989-2.098-.6-4.723-.025-6.674 1.463-.694.529-.957.622-.957.338 0-.482 1.733-1.714 3.095-2.2C7.727.01 10.077-.048 11.386.316c.515.143 1.497.616 2.183 1.051 1.153.731 1.248.752 1.248.268 0-.288.119-.523.264-.523.146 0 .265.476.265 1.058v1.059h-1.059c-.582 0-1.058-.111-1.058-.247z" fill="#b9b9b9"/><path d="M6.097 15.51c-.503-.218-1.306-.696-1.786-1.061-.839-.64-.871-.645-.871-.122 0 .298-.12.542-.265.542-.146 0-.265-.476-.265-1.058v-1.058h1.06c.582 0 1.058.119 1.058.264 0 .146-.253.265-.561.265-.837 0-.224.619 1.429 1.442 1.843.919 4.503.94 6.408.053.728-.34 1.486-.815 1.686-1.056.2-.242.548-.44.774-.44.685 0-.66 1.237-2.16 1.984-1.096.546-1.704.66-3.46.652-1.29-.006-2.493-.167-3.046-.407zM0 11.44c0-.813.75-1.729 1.648-2.014.444-.14.478-.343.322-1.924-.147-1.499-.1-1.852.317-2.336.754-.875 1.493-.973 2.335-.31.714.561.732.637.57 2.381L5.024 9.04l1.06.701c.74.49 1.06.89 1.06 1.328v.825c0 .109-.12.238-.265.286-.145.049-.264-.275-.264-.72 0-.67-.184-.91-1.079-1.41l-1.078-.604.163-1.735c.09-.955.086-1.937-.008-2.183-.19-.496-1.56-.626-1.84-.175-.281.456-.355 2.1-.1 2.257.13.081.237.487.237.902 0 .605-.234.901-1.19 1.505-.939.594-1.19.906-1.19 1.48 0 .4-.12.727-.265.727-.146 0-.265-.352-.265-.783zm11.377-.107c0-.747.172-1.005 1.06-1.593l1.06-.701-.168-1.802c-.162-1.744-.144-1.82.57-2.38.842-.664 1.58-.566 2.335.31.413.48.464.841.325 2.292l-.166 1.722 1.064.603c.922.523 1.064.726 1.064 1.521 0 .505-.12.918-.265.918-.145 0-.264-.329-.264-.73 0-.573-.236-.875-1.082-1.39l-1.08-.658.172-1.803c.19-1.987-.046-2.562-1.053-2.562-1.006 0-1.243.576-1.056 2.562l.17 1.803-1.078.603c-.884.495-1.079.745-1.079 1.39 0 .432-.119.785-.264.785-.146 0-.265-.4-.265-.89zM13.23 2.98c0-.135.268-.285.595-.334.513-.075.425-.19-.639-.824C10.249.07 7.553.142 4.783 2.047c-.872.6-1.342.796-1.342.558 0-.2.446-.674.992-1.051 2.821-1.953 6.244-2.023 9.137-.189 1.153.731 1.248.752 1.248.268 0-.288.119-.523.264-.523.146 0 .265.476.265 1.058v1.059h-1.059c-.582 0-1.058-.111-1.058-.247z" fill="#b6b6b6"/><path d="M6.097 15.51c-.503-.218-1.306-.696-1.786-1.061-.839-.64-.871-.645-.871-.122 0 .298-.12.542-.265.542-.146 0-.265-.476-.265-1.058v-1.058h1.06c.582 0 1.058.119 1.058.264 0 .146-.253.265-.561.265-.837 0-.224.619 1.429 1.442 1.843.919 4.503.94 6.408.053.728-.34 1.486-.815 1.686-1.056.2-.242.548-.44.774-.44.685 0-.66 1.237-2.16 1.984-1.096.546-1.704.66-3.46.652-1.29-.006-2.493-.167-3.046-.407zM0 11.453c0-.535.248-.979.814-1.455.448-.377.931-.685 1.074-.685.163 0 .194-.673.084-1.788-.15-1.533-.103-1.878.331-2.415.618-.762 1.732-.82 2.499-.13.49.443.533.69.387 2.278l-.165 1.781 1.06.701c.888.588 1.06.846 1.06 1.593 0 .49-.12.89-.265.89-.145 0-.264-.353-.264-.785 0-.645-.195-.895-1.079-1.39l-1.078-.603.163-1.735c.09-.955.086-1.937-.008-2.183-.243-.634-1.608-.589-1.958.064-.348.652-.354 1.79-.01 2.002.146.09.265.503.265.918 0 .605-.234.901-1.19 1.505-.939.594-1.19.906-1.19 1.48 0 .4-.12.727-.265.727-.146 0-.265-.346-.265-.77zm11.377-.12c0-.747.172-1.005 1.06-1.593l1.06-.701-.165-1.781c-.146-1.588-.104-1.835.387-2.278.767-.69 1.88-.632 2.499.13.433.535.481.883.333 2.392-.156 1.581-.122 1.783.322 1.924.899.285 1.648 1.201 1.648 2.014 0 .43-.12.783-.265.783-.145 0-.264-.329-.264-.73 0-.573-.236-.875-1.082-1.39l-1.08-.658.172-1.803c.19-1.987-.046-2.562-1.053-2.562-1.006 0-1.243.576-1.056 2.562l.17 1.803-1.078.603c-.884.495-1.079.745-1.079 1.39 0 .432-.119.785-.264.785-.146 0-.265-.4-.265-.89zM13.23 2.98c0-.135.268-.285.595-.334.513-.075.425-.19-.639-.824C10.249.07 7.553.142 4.783 2.047c-.872.6-1.342.796-1.342.558 0-.2.446-.674.992-1.051 2.821-1.953 6.244-2.023 9.137-.189 1.153.731 1.248.752 1.248.268 0-.288.119-.523.264-.523.146 0 .265.476.265 1.058v1.059h-1.059c-.582 0-1.058-.111-1.058-.247z" fill="#b2b2b2"/><path d="M6.085 15.485a10.451 10.451 0 01-1.786-1.05c-.831-.63-.86-.633-.86-.108 0 .298-.118.542-.264.542-.146 0-.265-.476-.265-1.058v-1.058h1.06c.582 0 1.058.119 1.058.264 0 .146-.253.265-.561.265-.837 0-.224.619 1.429 1.442 1.843.919 4.503.94 6.408.053.728-.34 1.486-.815 1.686-1.056.2-.242.548-.44.774-.44.685 0-.66 1.237-2.16 1.984-1.105.55-1.69.659-3.46.641-1.269-.013-2.506-.183-3.058-.42zM0 11.453c0-.535.248-.979.814-1.455.448-.377.936-.685 1.085-.685.176 0 .208-.629.091-1.797-.154-1.537-.108-1.885.32-2.414.61-.755 1.728-.81 2.492-.122.49.443.533.69.387 2.278l-.165 1.781 1.06.701c.888.588 1.06.846 1.06 1.593 0 .49-.12.89-.265.89-.145 0-.264-.353-.264-.785 0-.645-.195-.895-1.079-1.39l-1.078-.603.163-1.735c.09-.955.086-1.937-.008-2.183-.243-.634-1.608-.589-1.958.064-.348.652-.354 1.79-.01 2.002.146.09.265.503.265.918 0 .605-.234.901-1.19 1.505-.939.594-1.19.906-1.19 1.48 0 .4-.12.727-.265.727-.146 0-.265-.346-.265-.77zm11.377-.12c0-.747.172-1.005 1.06-1.593l1.06-.701-.165-1.781c-.146-1.588-.104-1.835.387-2.278.767-.69 1.88-.632 2.499.13.433.535.481.883.333 2.392-.156 1.581-.122 1.783.322 1.924.899.285 1.648 1.201 1.648 2.014 0 .43-.12.783-.265.783-.145 0-.264-.329-.264-.73 0-.573-.236-.875-1.082-1.39l-1.08-.658.172-1.803c.19-1.987-.046-2.562-1.053-2.562-1.006 0-1.243.576-1.056 2.562l.17 1.803-1.078.603c-.884.495-1.079.745-1.079 1.39 0 .432-.119.785-.264.785-.146 0-.265-.4-.265-.89zM13.23 2.98c0-.135.268-.285.595-.334.513-.075.425-.19-.639-.824C10.261.08 7.575.144 4.776 2.028c-.808.544-1.336.764-1.336.556 0-.188.446-.652.992-1.03 2.819-1.95 6.366-2.022 9.092-.185 1.087.733 1.166.75 1.245.262.153-.94.577-.544.577.538v1.059h-1.059c-.582 0-1.058-.111-1.058-.247z" fill="#adadad"/><path d="M6.041 15.422a16.242 16.242 0 01-1.786-1.066c-.814-.58-.815-.58-.815-.034 0 .301-.12.547-.265.547-.146 0-.265-.476-.265-1.058v-1.058h1.06c.582 0 1.058.119 1.058.264 0 .146-.253.265-.561.265-.837 0-.224.619 1.429 1.442 1.843.919 4.503.94 6.408.053.728-.34 1.486-.815 1.686-1.056.2-.242.548-.44.774-.44.685 0-.66 1.237-2.16 1.984-1.704.849-5.018.928-6.562.157zM0 11.453c0-.535.248-.979.814-1.455.448-.377.938-.685 1.09-.685.18 0 .211-.59.089-1.732-.234-2.183.198-3.03 1.544-3.03 1.438 0 1.863.71 1.653 2.765l-.176 1.716 1.065.705c.893.591 1.065.848 1.065 1.596 0 .49-.12.89-.265.89-.145 0-.264-.353-.264-.785 0-.645-.195-.895-1.079-1.39l-1.078-.603.163-1.735c.203-2.153.037-2.63-.913-2.63-1.344 0-1.493.542-.918 3.333.155.756.073.881-1.046 1.588-.962.608-1.214.918-1.214 1.495 0 .4-.12.727-.265.727-.146 0-.265-.346-.265-.77zm11.377-.12c0-.748.172-1.005 1.065-1.596l1.065-.705-.176-1.716c-.21-2.054.215-2.766 1.653-2.766 1.343 0 1.795.872 1.565 3.02-.163 1.52-.13 1.712.32 1.855.902.286 1.652 1.2 1.652 2.015 0 .43-.12.783-.265.783-.145 0-.264-.333-.264-.74 0-.583-.23-.879-1.073-1.39l-1.073-.648.165-1.803c.18-1.986-.058-2.562-1.062-2.562-1.006 0-1.243.576-1.056 2.562l.17 1.803-1.078.603c-.884.495-1.079.745-1.079 1.39 0 .432-.119.785-.264.785-.146 0-.265-.4-.265-.89zm1.852-8.246c0-.078.261-.238.58-.356.538-.198.49-.269-.638-.93-2.936-1.72-5.609-1.648-8.395.227-.808.544-1.336.764-1.336.556C3.44 2.122 5.155.963 6.582.46c2.3-.81 5.491-.3 7.36 1.175l.742.587.085-.556c.148-.971.577-.597.577.503v1.059h-1.058c-.583 0-1.059-.064-1.059-.141z" fill="#a9a9a9"/><path d="M6.482 15.603c-.436-.156-1.3-.628-1.918-1.05-1.06-.723-1.124-.736-1.124-.226 0 .298-.12.542-.265.542-.146 0-.265-.476-.265-1.058v-1.058h1.06c.582 0 1.058.119 1.058.264 0 .146-.253.265-.561.265-.493 0-.517.054-.199.439.771.932 2.922 1.672 4.861 1.672 1.939 0 4.09-.74 4.861-1.672.2-.242.548-.44.774-.44.685 0-.66 1.237-2.16 1.984-1.084.54-1.699.659-3.328.642-1.1-.012-2.356-.149-2.793-.304zM0 11.453c0-.535.248-.979.814-1.455.448-.377.938-.685 1.09-.685.18 0 .211-.59.089-1.732-.234-2.183.198-3.03 1.544-3.03 1.438 0 1.863.71 1.653 2.765l-.176 1.716 1.065.705c.893.591 1.065.848 1.065 1.596 0 .49-.12.89-.265.89-.145 0-.264-.353-.264-.785 0-.644-.195-.896-1.076-1.39l-1.075-.603.17-1.646c.222-2.157.033-2.72-.915-2.72-1.356 0-1.505.539-.93 3.334.156.756.074.881-1.045 1.588-.962.608-1.214.918-1.214 1.495 0 .4-.12.727-.265.727-.146 0-.265-.346-.265-.77zm11.377-.148c0-.795.142-.998 1.064-1.521l1.064-.603-.173-1.793c-.206-2.136.202-2.838 1.652-2.838 1.343 0 1.795.872 1.565 3.02-.163 1.52-.13 1.712.32 1.855.902.286 1.652 1.2 1.652 2.015 0 .43-.12.783-.265.783-.145 0-.264-.333-.264-.74 0-.583-.23-.879-1.073-1.39l-1.073-.648.165-1.803c.18-1.986-.058-2.562-1.062-2.562-1.006 0-1.243.576-1.056 2.562l.17 1.803-1.078.603c-.884.495-1.079.745-1.079 1.39 0 .432-.119.785-.264.785-.146 0-.265-.413-.265-.918zm1.852-8.218c0-.078.261-.238.58-.356.538-.198.49-.269-.638-.93-2.936-1.72-5.609-1.648-8.395.227-1.43.962-1.81.799-.609-.263C5.23.826 7.473.053 9.135.053c1.596 0 3.665.68 4.806 1.582l.743.587.085-.556c.148-.971.577-.597.577.503v1.059h-1.058c-.583 0-1.059-.064-1.059-.141z" fill="#a4a4a4"/><path d="M6.482 15.603c-.436-.156-1.3-.628-1.918-1.05-1.06-.723-1.124-.736-1.124-.226 0 .298-.12.542-.265.542-.146 0-.265-.476-.265-1.058v-1.058h1.06c.582 0 1.058.119 1.058.264 0 .146-.253.265-.561.265-.493 0-.517.054-.199.439.771.932 2.922 1.672 4.861 1.672 1.939 0 4.09-.74 4.861-1.672.2-.242.548-.44.774-.44.685 0-.66 1.237-2.16 1.984-1.084.54-1.699.659-3.328.642-1.1-.012-2.356-.149-2.793-.304zM0 11.453c0-.535.248-.979.814-1.455.448-.377.938-.685 1.09-.685.18 0 .211-.59.089-1.732-.234-2.183.198-3.03 1.544-3.03 1.438 0 1.863.71 1.653 2.765l-.176 1.716 1.065.705c.893.591 1.065.848 1.065 1.596 0 .49-.12.89-.265.89-.145 0-.264-.353-.264-.785 0-.644-.195-.896-1.076-1.39l-1.075-.603.17-1.646c.222-2.157.033-2.72-.915-2.72-1.354 0-1.506.544-.931 3.322.153.74.065.871-1.046 1.574-.97.613-1.213.915-1.213 1.507 0 .408-.119.741-.264.741-.146 0-.265-.346-.265-.77zm11.377-.148c0-.795.142-.998 1.064-1.521l1.064-.603-.173-1.793c-.206-2.136.202-2.838 1.652-2.838 1.348 0 1.795.87 1.562 3.044-.117 1.095-.088 1.719.081 1.719.146 0 .632.308 1.08.685.565.476.814.92.814 1.455 0 .424-.12.77-.265.77-.145 0-.264-.353-.264-.785 0-.645-.195-.895-1.079-1.39l-1.078-.603.17-1.803c.193-2.049-.046-2.562-1.192-2.562-.95 0-1.116.477-.913 2.63l.163 1.735-1.078.603c-.884.495-1.079.745-1.079 1.39 0 .432-.119.785-.264.785-.146 0-.265-.413-.265-.918zm1.984-8.342c.09-.146.343-.265.56-.265.666 0 .136-.502-1.29-1.225C11.046.67 8.797.398 7.23.822c-.608.164-1.71.705-2.447 1.202-1.559 1.049-1.793.82-.365-.357 2.551-2.103 6.884-2.118 9.524-.032l.743.587.085-.556c.148-.971.577-.597.577.503v1.059h-1.074c-.649 0-1.01-.105-.91-.265z" fill="#a1a1a1"/><path d="M6.482 15.603c-.436-.156-1.3-.628-1.918-1.05-1.06-.723-1.124-.736-1.124-.226 0 .298-.12.542-.265.542-.146 0-.265-.476-.265-1.058v-1.058h1.06c.582 0 1.058.119 1.058.264 0 .146-.253.265-.561.265-.493 0-.517.054-.199.439.771.932 2.922 1.672 4.861 1.672 1.939 0 4.09-.74 4.861-1.672.2-.242.548-.44.774-.44.685 0-.66 1.237-2.16 1.984-1.084.54-1.699.659-3.328.642-1.1-.012-2.356-.149-2.793-.304zM0 11.453c0-.535.248-.979.814-1.455.448-.377.938-.685 1.09-.685.18 0 .211-.59.089-1.732-.234-2.183.198-3.03 1.544-3.03 1.438 0 1.863.71 1.653 2.765l-.176 1.716 1.065.705c.899.595 1.065.846 1.065 1.611 0 .537-.108.84-.265.743-.145-.09-.264-.45-.264-.801 0-.47-.282-.797-1.076-1.242l-1.075-.603.17-1.646c.222-2.157.033-2.72-.915-2.72-.41 0-.89.178-1.07.394-.306.369-.297.683.088 2.952.128.755.033.9-1.033 1.574-.934.59-1.175.895-1.175 1.483 0 .408-.119.741-.264.741-.146 0-.265-.346-.265-.77zm11.377-.148c0-.795.142-.998 1.064-1.521l1.064-.603-.173-1.793c-.206-2.136.202-2.838 1.652-2.838 1.348 0 1.795.87 1.562 3.044-.117 1.095-.088 1.719.081 1.719.146 0 .632.308 1.08.685.565.476.814.92.814 1.455 0 .424-.12.77-.265.77-.145 0-.264-.353-.264-.785 0-.645-.195-.895-1.079-1.39l-1.078-.603.17-1.803c.193-2.049-.046-2.562-1.192-2.562-.95 0-1.116.477-.913 2.63l.163 1.735-1.078.603c-.884.495-1.079.745-1.079 1.39 0 .432-.119.785-.264.785-.146 0-.265-.413-.265-.918zm1.984-8.342c.09-.146.343-.265.56-.265.666 0 .136-.502-1.29-1.225C11.046.67 8.797.398 7.23.822c-.608.164-1.71.705-2.447 1.202-1.559 1.049-1.793.82-.365-.357 2.551-2.103 6.884-2.118 9.524-.032l.743.587.085-.556c.148-.971.577-.597.577.503v1.059h-1.074c-.649 0-1.01-.105-.91-.265z" fill="#9e9e9e"/><path d="M6.132 15.397c-.629-.286-1.492-.767-1.918-1.07l-.774-.552v.547c0 .301-.12.547-.265.547-.146 0-.265-.476-.265-1.058v-1.058h1.06c.582 0 1.058.119 1.058.264 0 .146-.253.265-.561.265-.493 0-.517.054-.199.439.2.241.959.716 1.686 1.055 2.482 1.157 6.182.683 8.003-1.027.327-.306.684-.466.793-.354.312.317-1.479 1.675-2.802 2.126-1.687.575-4.402.517-5.815-.124zM0 11.453c0-.535.248-.979.814-1.455.448-.377.938-.685 1.09-.685.18 0 .211-.59.089-1.732-.234-2.183.198-3.03 1.544-3.03 1.45 0 1.857.7 1.652 2.837l-.173 1.793 1.064.603c.927.526 1.064.723 1.064 1.537 0 .555-.108.867-.265.77-.145-.09-.264-.45-.264-.801 0-.47-.282-.797-1.076-1.242l-1.075-.603.17-1.646c.222-2.157.033-2.72-.915-2.72-1.338 0-1.487.507-.987 3.355.126.714.024.855-1.209 1.675-.743.494-.99.841-.992 1.387-.001.4-.12.727-.266.727-.146 0-.265-.346-.265-.77zm11.377-.148c0-.795.142-.998 1.064-1.521l1.064-.603-.173-1.793c-.206-2.136.202-2.838 1.652-2.838 1.348 0 1.795.87 1.562 3.044-.117 1.095-.088 1.719.081 1.719.146 0 .632.308 1.08.685.565.476.814.92.814 1.455 0 .424-.12.77-.265.77-.145 0-.264-.353-.264-.785 0-.645-.195-.895-1.079-1.39l-1.078-.603.17-1.803c.193-2.049-.046-2.562-1.192-2.562-.95 0-1.116.477-.913 2.63l.163 1.735-1.078.603c-.884.495-1.079.745-1.079 1.39 0 .432-.119.785-.264.785-.146 0-.265-.413-.265-.918zm1.984-8.342c.09-.146.343-.265.56-.265.666 0 .136-.502-1.29-1.225C11.046.67 8.797.398 7.23.822c-.608.164-1.71.705-2.447 1.202-1.559 1.049-1.793.82-.365-.357 2.551-2.103 6.884-2.118 9.524-.032l.743.587.085-.556c.148-.971.577-.597.577.503v1.059h-1.074c-.649 0-1.01-.105-.91-.265z" fill="#999"/><path d="M6.132 15.397c-.629-.286-1.492-.767-1.918-1.07l-.774-.552v.547c0 .301-.12.547-.265.547-.146 0-.265-.476-.265-1.058v-1.058h1.06c.582 0 1.058.119 1.058.264 0 .146-.253.265-.561.265-.493 0-.517.054-.199.439.2.241.959.716 1.686 1.055 2.482 1.157 6.182.683 8.003-1.027.327-.306.684-.466.793-.354.312.317-1.479 1.675-2.802 2.126-1.687.575-4.402.517-5.815-.124zM0 11.453c0-.535.248-.979.814-1.455.448-.377.938-.685 1.09-.685.18 0 .211-.59.089-1.732-.234-2.183.198-3.03 1.544-3.03 1.45 0 1.857.7 1.652 2.837l-.173 1.793 1.064.603c.927.526 1.064.723 1.064 1.537 0 .555-.108.867-.265.77-.145-.09-.264-.45-.264-.801 0-.47-.282-.797-1.076-1.242l-1.075-.603.17-1.646c.22-2.143.03-2.72-.895-2.72-.397 0-.866.144-1.04.318-.36.36-.419 1.76-.096 2.269.47.74.018 1.782-1.037 2.389-.84.483-1.037.746-1.037 1.383 0 .432-.119.785-.264.785-.146 0-.265-.346-.265-.77zm11.377-.148c0-.796.142-.998 1.068-1.521l1.067-.603-.172-1.653c-.221-2.124.24-2.978 1.609-2.978 1.386 0 1.832.85 1.597 3.044-.117 1.095-.088 1.719.081 1.719.146 0 .632.308 1.08.685.565.476.814.92.814 1.455 0 .424-.12.77-.265.77-.145 0-.264-.353-.264-.785 0-.645-.195-.895-1.079-1.39l-1.078-.603.17-1.803c.193-2.049-.046-2.562-1.192-2.562-.95 0-1.116.477-.913 2.63l.163 1.735-1.078.603c-.884.495-1.079.745-1.079 1.39 0 .432-.119.785-.264.785-.146 0-.265-.413-.265-.918zm1.852-8.218c0-.078.264-.239.586-.358.555-.205.53-.253-.485-.893C10.568.093 7.552.16 4.776 2.028c-1.554 1.046-1.785.814-.359-.361 2.605-2.147 7.302-2.093 9.672.112l.728.676v-.672c0-.37.119-.672.264-.672.146 0 .265.476.265 1.058v1.059h-1.059c-.582 0-1.058-.064-1.058-.141z" fill="#959595"/><path d="M6.132 15.397c-.629-.286-1.492-.767-1.918-1.07l-.774-.552v.547c0 .301-.12.547-.265.547-.146 0-.265-.476-.265-1.058v-1.058h1.06c.582 0 1.058.119 1.058.264 0 .146-.253.265-.561.265-.493 0-.517.054-.199.439.2.241.959.716 1.686 1.055 2.482 1.157 6.182.683 8.003-1.027.327-.306.684-.466.793-.354.312.317-1.479 1.675-2.802 2.126-1.687.575-4.402.517-5.815-.124zM0 11.476c0-.754.67-1.564 1.75-2.12.43-.221.53-.46.425-1.026-.258-1.403-.177-2.92.179-3.35.499-.6 1.955-.548 2.535.093.397.44.445.807.3 2.315l-.173 1.793 1.064.603c.927.526 1.064.723 1.064 1.537 0 .555-.108.867-.265.77-.145-.09-.264-.45-.264-.801 0-.47-.282-.797-1.076-1.241l-1.075-.604.17-1.646c.222-2.157.033-2.72-.915-2.72-1.158 0-1.397.51-1.203 2.563l.17 1.803-1.078.604c-.884.494-1.079.744-1.079 1.389 0 .432-.119.785-.264.785-.146 0-.265-.336-.265-.747zm11.377-.17c0-.797.142-.999 1.068-1.522l1.067-.603-.172-1.653c-.221-2.124.24-2.978 1.609-2.978 1.384 0 1.815.828 1.579 3.03-.122 1.142-.092 1.733.09 1.733.15 0 .641.308 1.089.685.565.476.814.92.814 1.455 0 .424-.12.77-.265.77-.145 0-.264-.353-.264-.785 0-.645-.195-.895-1.079-1.39l-1.078-.603.163-1.735c.21-2.232.051-2.63-1.05-2.63-1.1 0-1.259.398-1.048 2.63l.163 1.735-1.078.603c-.884.495-1.079.745-1.079 1.39 0 .432-.119.785-.264.785-.146 0-.265-.413-.265-.918zm1.852-8.22c0-.077.264-.238.586-.357.555-.205.53-.253-.485-.893C10.568.093 7.552.16 4.776 2.028c-1.562 1.05-1.78.812-.344-.376 2.555-2.114 7.315-2.052 9.657.127l.728.676v-.672c0-.37.119-.672.264-.672.146 0 .265.476.265 1.058v1.059h-1.059c-.582 0-1.058-.064-1.058-.141z" fill="#929292"/><path d="M6.132 15.397c-.629-.286-1.492-.767-1.918-1.07l-.774-.552v.547c0 .301-.12.547-.265.547-.146 0-.265-.476-.265-1.058v-1.058h1.06c.582 0 1.058.119 1.058.264 0 .146-.253.265-.561.265-.493 0-.517.054-.199.439.2.241.959.716 1.686 1.055 2.482 1.157 6.182.683 8.003-1.027.327-.306.684-.466.793-.354.312.317-1.479 1.675-2.802 2.126-1.687.575-4.402.517-5.815-.124zM0 11.424c0-.642.226-.958 1.152-1.61.974-.688 1.131-.92 1.02-1.517-.256-1.362-.172-2.89.182-3.316.499-.602 1.955-.549 2.535.092.397.44.445.807.3 2.315l-.173 1.793 1.064.603c.927.526 1.064.723 1.064 1.537 0 .555-.108.867-.265.77-.145-.09-.264-.453-.264-.806 0-.464-.3-.832-1.083-1.326L4.45 9.276l.18-1.55c.238-2.053.034-2.646-.911-2.646-1.158 0-1.397.509-1.203 2.562l.17 1.803-1.078.604c-.884.494-1.079.744-1.079 1.389 0 .432-.119.785-.264.785-.146 0-.265-.36-.265-.799zm11.377.03c0-.536.248-.98.814-1.456.448-.377.934-.685 1.08-.685.169 0 .198-.624.08-1.72-.234-2.193.212-3.042 1.598-3.042 1.384 0 1.815.827 1.579 3.03-.122 1.141-.092 1.732.09 1.732.15 0 .641.308 1.089.685.565.476.814.92.814 1.455 0 .424-.12.77-.265.77-.145 0-.264-.353-.264-.785 0-.645-.195-.895-1.079-1.39l-1.078-.603.163-1.735c.21-2.232.051-2.63-1.05-2.63-1.1 0-1.259.398-1.048 2.63l.163 1.735-1.078.604c-.884.494-1.079.744-1.079 1.389 0 .432-.119.785-.264.785-.146 0-.265-.346-.265-.77zm1.852-8.367c0-.078.264-.239.586-.358.556-.205.532-.25-.463-.873-2.858-1.788-5.75-1.73-8.576.172-1.562 1.051-1.78.812-.344-.378 2.593-2.148 7.352-2.02 9.804.264l.58.54v-.671c0-.37.12-.672.265-.672.146 0 .265.476.265 1.058v1.059h-1.059c-.582 0-1.058-.064-1.058-.141z" fill="#8d8d8d"/><path d="M6.132 15.41c-.629-.293-1.492-.78-1.918-1.084l-.774-.551v.547c0 .301-.12.547-.265.547-.146 0-.265-.476-.265-1.058v-1.058h1.06c.582 0 1.058.119 1.058.264 0 .146-.253.265-.561.265-.493 0-.517.054-.199.439.2.241.959.716 1.686 1.055 2.482 1.157 6.182.683 8.003-1.027.327-.306.684-.467.793-.356.24.24-1.026 1.297-2.314 1.93-1.44.71-4.864.757-6.303.087zM0 11.424c0-.642.226-.958 1.152-1.61.974-.688 1.131-.92 1.02-1.517-.256-1.362-.172-2.89.182-3.316.499-.602 1.955-.549 2.535.092.397.44.445.807.3 2.315l-.173 1.793 1.064.603c.927.526 1.064.723 1.064 1.537 0 .555-.108.867-.265.77-.145-.09-.264-.453-.264-.806 0-.464-.3-.832-1.083-1.326L4.45 9.276l.18-1.55c.238-2.053.034-2.646-.911-2.646-1.158 0-1.397.509-1.203 2.562l.17 1.803-1.078.604c-.884.494-1.079.744-1.079 1.389 0 .432-.119.785-.264.785-.146 0-.265-.36-.265-.799zm11.377.03c0-.536.248-.98.814-1.456.448-.377.934-.685 1.08-.685.169 0 .198-.624.08-1.72-.234-2.193.212-3.042 1.598-3.042 1.384 0 1.815.827 1.579 3.03-.122 1.141-.092 1.732.09 1.732.15 0 .641.308 1.089.685.565.476.814.92.814 1.455 0 .424-.12.77-.265.77-.145 0-.264-.353-.264-.785 0-.645-.195-.895-1.079-1.39l-1.078-.603.163-1.735c.21-2.237.053-2.63-1.06-2.63-1.098 0-1.282.475-1.05 2.72l.169 1.645-1.076.604c-.88.494-1.075.745-1.075 1.389 0 .432-.119.785-.264.785-.146 0-.265-.346-.265-.77zm1.984-8.491c.09-.145.365-.269.611-.274.714-.015-.947-1.242-2.311-1.708C9.334.188 6.979.546 4.776 2.028c-1.541 1.037-1.789.817-.384-.34 2.632-2.17 7.39-2.06 9.844.226.573.533.58.534.58.017 0-.288.12-.598.265-.688.16-.098.265.262.265.91v1.075h-1.074c-.649 0-1.01-.105-.91-.265z" fill="#888"/><path d="M6.132 15.41c-.629-.293-1.492-.78-1.918-1.084l-.774-.551v.547c0 .301-.12.547-.265.547-.146 0-.265-.476-.265-1.058v-1.058h1.06c.582 0 1.058.119 1.058.264 0 .146-.256.265-.57.265-.544 0-.55.023-.114.504.252.278 1.054.762 1.783 1.075 2.496 1.074 6.037.573 7.826-1.108.33-.309.688-.471.797-.36.24.24-1.026 1.297-2.314 1.93-1.44.71-4.864.757-6.303.087zM0 11.424c0-.642.226-.958 1.152-1.61.956-.675 1.133-.932 1.044-1.517-.217-1.417-.13-2.97.188-3.353.473-.57 1.94-.495 2.505.129.397.44.445.807.3 2.315l-.173 1.793 1.064.603c.927.526 1.064.723 1.064 1.537 0 .583-.104.87-.277.762-.153-.094-.242-.421-.199-.726.056-.398-.223-.763-.98-1.281L4.63 9.35V5.211l-.743-.084c-1.295-.149-1.564.33-1.374 2.447l.169 1.871-1.077.603c-.881.495-1.076.746-1.076 1.39 0 .432-.119.785-.264.785-.146 0-.265-.36-.265-.799zm11.377.045c0-.553.242-.99.814-1.471.448-.377.934-.685 1.08-.685.169 0 .198-.624.08-1.72-.234-2.193.212-3.042 1.598-3.042 1.36 0 1.81.83 1.602 2.964L16.39 9.18l1.066.725c.848.577 1.066.888 1.066 1.521 0 .438-.12.796-.265.796-.145 0-.264-.353-.264-.785 0-.645-.195-.895-1.079-1.39l-1.078-.603.163-1.735c.21-2.237.053-2.63-1.06-2.63-1.095 0-1.296.506-1.047 2.645l.18 1.55-1.083.715c-.747.494-1.082.905-1.082 1.327 0 .336-.119.684-.264.774-.154.095-.265-.166-.265-.622zm1.996-8.524c.096-.155.34-.219.544-.14.655.25.395-.318-.406-.888C11.42.427 8.446.167 6.085 1.263c-.8.372-1.723.928-2.05 1.234-.328.307-.595.427-.595.267 0-.524 1.86-1.84 3.224-2.28 2.505-.81 5.239-.367 7.13 1.154.922.74 1.023.769 1.023.295 0-.29.119-.6.264-.69.16-.098.265.262.265.91v1.075h-1.074c-.694 0-1.012-.1-.9-.283z" fill="#858585"/><path d="M6.132 15.41c-.629-.293-1.492-.78-1.918-1.084l-.774-.551v.547c0 .301-.12.547-.265.547-.146 0-.265-.476-.265-1.058v-1.058h1.06c.582 0 1.058.119 1.058.264 0 .146-.256.265-.57.265-.544 0-.55.023-.114.504.767.847 2.972 1.641 4.622 1.664 1.9.027 3.312-.41 4.612-1.43.556-.435 1.092-.71 1.191-.609.223.226-1.086 1.299-2.333 1.912-1.44.71-4.864.757-6.303.087zM0 11.424c0-.648.228-.96 1.21-1.651 1.03-.727 1.185-.95 1.046-1.516-.246-1.006-.145-2.984.173-3.367.435-.524 1.92-.414 2.46.183.397.44.445.807.3 2.315l-.173 1.793 1.064.603c.936.53 1.064.718 1.064 1.565 0 .53-.09.872-.199.762-.109-.11-.198-.45-.198-.757 0-.352-.388-.822-1.058-1.28L4.63 9.35V5.211l-.743-.084c-1.295-.149-1.564.33-1.374 2.447l.169 1.871-1.077.603c-.881.495-1.076.746-1.076 1.39 0 .432-.119.785-.264.785-.146 0-.265-.36-.265-.799zm11.377.045c0-.553.242-.99.814-1.471.448-.377.934-.685 1.08-.685.169 0 .198-.624.08-1.72-.234-2.193.212-3.042 1.598-3.042 1.36 0 1.81.83 1.602 2.964L16.39 9.18l1.066.725c.848.577 1.066.888 1.066 1.521 0 .438-.12.796-.265.796-.145 0-.264-.353-.264-.785 0-.645-.195-.895-1.079-1.39l-1.078-.603.163-1.735c.21-2.237.053-2.63-1.06-2.63-1.095 0-1.296.506-1.047 2.646l.18 1.55-1.083.683c-.781.494-1.082.862-1.082 1.326 0 .353-.119.716-.264.806-.154.095-.265-.166-.265-.622zm1.996-8.524c.096-.155.34-.219.544-.14.756.29.337-.385-.622-1.001C11.82.855 10.456.51 8.632.628c-1.688.107-3.472.835-4.597 1.876-.328.303-.595.42-.595.26 0-.524 1.86-1.84 3.224-2.28 2.505-.81 5.239-.367 7.13 1.154.922.74 1.023.769 1.023.295 0-.29.119-.6.264-.69.16-.098.265.262.265.91v1.075h-1.074c-.694 0-1.012-.1-.9-.283z" fill="#818181"/><path d="M6.132 15.397c-.629-.286-1.492-.767-1.918-1.07l-.774-.552v.547c0 .301-.127.547-.281.547-.162 0-.246-.418-.198-.992.077-.938.136-.997 1.074-1.074.574-.048.992.036.992.198 0 .154-.256.28-.57.28-.544 0-.55.024-.114.505.767.847 2.972 1.641 4.622 1.664 1.844.027 3.26-.402 4.642-1.407.572-.415 1.095-.7 1.163-.632.258.259-.598.945-2.138 1.715-1.34.67-1.914.8-3.48.796-1.288-.004-2.234-.169-3.02-.525zM0 11.424c0-.644.227-.959 1.172-1.625l1.172-.826-.151-1.808c-.177-2.106.09-2.615 1.37-2.615 1.419 0 1.83.715 1.631 2.838l-.167 1.793 1.058.648c.907.556 1.059.78 1.059 1.566 0 .504-.086.83-.19.726-.106-.105-.195-.445-.2-.757-.004-.36-.395-.832-1.065-1.29L4.63 9.35V5.211l-.743-.084c-1.295-.149-1.564.33-1.374 2.447l.169 1.871-1.077.603c-.881.495-1.076.746-1.076 1.39 0 .432-.119.785-.264.785-.146 0-.265-.36-.265-.799zm11.377.045c0-.553.242-.99.814-1.471.448-.377.934-.685 1.08-.685.169 0 .198-.624.08-1.72-.234-2.193.212-3.042 1.598-3.042 1.36 0 1.81.83 1.602 2.964L16.39 9.18l1.066.725c.848.577 1.066.888 1.066 1.521 0 .438-.12.796-.265.796-.145 0-.264-.353-.264-.785 0-.645-.195-.895-1.079-1.39l-1.078-.603.163-1.735c.21-2.237.053-2.63-1.06-2.63-1.095 0-1.296.506-1.047 2.646l.18 1.55-1.083.683c-.781.494-1.082.862-1.082 1.326 0 .353-.119.716-.264.806-.154.095-.265-.166-.265-.622zm1.996-8.524c.096-.155.34-.219.544-.14.756.29.337-.385-.622-1.001C11.82.855 10.456.51 8.632.628c-1.688.107-3.472.835-4.597 1.876-.328.303-.595.42-.595.26 0-.524 1.86-1.84 3.224-2.28 2.505-.81 5.239-.367 7.13 1.154.922.74 1.023.769 1.023.295 0-.29.119-.6.264-.69.16-.098.265.262.265.91v1.075h-1.074c-.694 0-1.012-.1-.9-.283z" fill="#7d7d7d"/><path d="M6.132 15.397c-.629-.286-1.492-.767-1.918-1.07l-.774-.552v.547c0 .301-.127.547-.281.547-.162 0-.246-.418-.198-.992.077-.938.136-.997 1.074-1.074.574-.048.992.036.992.198 0 .154-.256.28-.57.28-.544 0-.55.024-.114.505.765.845 3.03 1.668 4.636 1.683 1.805.017 3.259-.43 4.628-1.426.572-.415 1.095-.7 1.163-.632.258.259-.598.945-2.138 1.715-1.34.67-1.914.8-3.48.796-1.288-.004-2.234-.169-3.02-.525zM0 11.424c0-.644.227-.959 1.172-1.625l1.172-.826-.151-1.808c-.177-2.106.09-2.615 1.37-2.615 1.437 0 1.831.71 1.615 2.904-.115 1.167-.086 1.859.077 1.859.144 0 .627.308 1.075.685.584.492.814.915.814 1.5 0 .447-.086.728-.19.623-.106-.105-.195-.447-.2-.76-.004-.37-.403-.836-1.14-1.332L4.48 9.266l.177-1.956c.172-1.893.157-1.964-.454-2.19-.675-.252-1.299-.123-1.629.337-.112.156-.134 1.118-.048 2.136l.156 1.852-1.077.603c-.881.495-1.076.746-1.076 1.39 0 .432-.119.785-.264.785-.146 0-.265-.36-.265-.799zm11.377.045c0-.553.242-.99.814-1.471.448-.377.934-.685 1.08-.685.169 0 .198-.624.08-1.72-.234-2.193.212-3.042 1.598-3.042 1.36 0 1.81.83 1.602 2.964L16.39 9.18l1.066.725c.848.577 1.066.888 1.066 1.521 0 .438-.12.796-.265.796-.145 0-.264-.353-.264-.785 0-.644-.195-.896-1.076-1.39l-1.075-.603.17-1.646c.231-2.25.048-2.72-1.062-2.72-1.107 0-1.307.501-1.058 2.647l.18 1.55-1.083.683c-.781.494-1.082.862-1.082 1.326 0 .353-.119.716-.264.806-.154.095-.265-.166-.265-.622zm1.996-8.524c.096-.155.34-.219.544-.14.655.25.395-.318-.406-.888C12.35 1.09 10.684.582 9.134.582 7.46.582 6.327.94 4.797 1.956c-1.444.958-1.706.804-.426-.251 2.586-2.132 6.773-2.145 9.453-.03.905.714.993.737.993.258 0-.29.119-.6.264-.69.16-.099.265.262.265.91v1.075h-1.074c-.694 0-1.012-.1-.9-.283z" fill="#7a7a7a"/><path d="M6.132 15.397c-.629-.286-1.492-.767-1.918-1.07l-.774-.552v.547c0 .301-.127.547-.281.547-.162 0-.246-.418-.198-.992.077-.938.136-.997 1.074-1.074.574-.048.992.036.992.198 0 .154-.256.28-.57.28-.544 0-.55.024-.114.505.765.845 3.03 1.668 4.636 1.683 1.805.017 3.259-.43 4.628-1.426.572-.415 1.095-.7 1.163-.632.258.259-.598.945-2.138 1.715-1.34.67-1.914.8-3.48.796-1.288-.004-2.234-.169-3.02-.525zM0 11.424c0-.644.227-.959 1.172-1.625l1.172-.826-.151-1.808C2.015 5.046 2.28 4.55 3.598 4.55c1.358 0 1.804.866 1.571 3.044-.117 1.095-.088 1.719.081 1.719.146 0 .632.308 1.08.685.584.492.814.915.814 1.5 0 .447-.086.728-.19.623-.106-.105-.195-.447-.2-.76-.004-.37-.403-.836-1.14-1.332L4.48 9.266l.177-1.956c.172-1.893.157-1.964-.454-2.19-.675-.252-1.299-.123-1.629.337-.112.156-.134 1.118-.048 2.136l.156 1.852-1.077.603c-.881.495-1.076.746-1.076 1.39 0 .432-.119.785-.264.785-.146 0-.265-.36-.265-.799zm11.377.045c0-.553.242-.99.814-1.471.448-.377.934-.685 1.08-.685.169 0 .198-.624.08-1.72-.233-2.177.214-3.042 1.572-3.042 1.306 0 1.622.555 1.565 2.755L16.44 9.18l1.04.725c.82.571 1.04.894 1.04 1.521 0 .438-.118.796-.264.796-.145 0-.264-.353-.264-.785 0-.643-.196-.896-1.07-1.39l-1.07-.603.155-1.852c.173-2.095-.025-2.58-1.058-2.58-1.03 0-1.236.49-1.056 2.501l.16 1.774-1.074.677c-.774.489-1.073.857-1.073 1.32 0 .353-.119.716-.264.806-.154.095-.265-.166-.265-.622zm1.996-8.524c.096-.155.34-.219.544-.14.655.25.395-.318-.406-.888C12.35 1.09 10.684.582 9.134.582c-1.669 0-2.807.359-4.319 1.362-1.352.897-1.64.956-.953.197C4.697 1.216 6.876.267 8.502.12c1.862-.169 3.901.426 5.322 1.552.903.716.993.74.993.26 0-.289.119-.599.264-.689.16-.098.265.262.265.91v1.075h-1.074c-.694 0-1.012-.1-.9-.283z" fill="#757575"/><path d="M6.132 15.397c-.629-.286-1.492-.767-1.918-1.07l-.774-.552v.547c0 .301-.127.547-.281.547-.162 0-.246-.418-.198-.992.077-.938.136-.997 1.074-1.074 1.053-.087 1.407.383.397.526-.557.08-.535.132.34.801 2.328 1.781 6.097 1.823 8.576.095.724-.505 1.368-.867 1.43-.805.25.25-.626.946-2.146 1.706-1.34.67-1.914.8-3.48.796-1.288-.004-2.234-.169-3.02-.525zM0 11.424c0-.644.227-.959 1.172-1.625l1.172-.826-.151-1.808C2.015 5.046 2.28 4.55 3.598 4.55c1.358 0 1.804.866 1.571 3.044-.117 1.095-.088 1.719.081 1.719.146 0 .632.308 1.08.685.584.492.814.915.814 1.5 0 .447-.086.728-.19.623-.106-.105-.195-.447-.2-.76-.004-.37-.403-.836-1.14-1.332L4.48 9.266l.177-1.956c.172-1.893.157-1.964-.454-2.19-.675-.252-1.299-.123-1.629.337-.112.156-.134 1.118-.048 2.136l.156 1.852-1.077.603c-.881.495-1.076.746-1.076 1.39 0 .432-.119.785-.264.785-.146 0-.265-.36-.265-.799zm11.377.019c0-.65.211-.957 1.059-1.537l1.058-.725-.163-1.653c-.208-2.109.256-2.977 1.592-2.977.496 0 1.044.189 1.244.43.354.426.438 1.954.182 3.316-.111.596.046.83 1.02 1.516.926.653 1.152.969 1.152 1.611 0 .44-.12.8-.265.8-.145 0-.264-.354-.264-.786 0-.643-.196-.896-1.07-1.39l-1.07-.603.155-1.852c.173-2.095-.025-2.58-1.058-2.58-1.03 0-1.236.49-1.056 2.501l.16 1.774-1.074.677c-.773.489-1.073.857-1.073 1.32 0 .354-.119.716-.264.806-.155.096-.265-.174-.265-.648zm2.33-8.404c.853-.163.608-.612-.816-1.494C10.608.13 7.012.305 4.752 1.943c-1.234.894-1.591.973-.89.198C4.697 1.216 6.876.267 8.502.12c1.862-.169 3.901.426 5.322 1.552.903.716.993.74.993.26 0-.289.119-.599.264-.689.16-.098.265.262.265.91v1.075l-1.125-.036c-.636-.02-.859-.087-.514-.153z" fill="#717171"/><path d="M5.953 15.271c-.727-.358-1.59-.847-1.918-1.088-.568-.416-.595-.41-.595.125 0 .309-.127.561-.281.561-.162 0-.246-.418-.198-.992.077-.938.136-.997 1.074-1.074 1.053-.087 1.407.383.397.526-.556.08-.534.132.345.805 2.348 1.796 6.059 1.833 8.575.085.722-.502 1.364-.861 1.427-.799.25.25-.627.946-2.147 1.706-2.143 1.07-4.686 1.126-6.679.145zM0 11.424c0-.644.227-.959 1.172-1.625l1.172-.826-.151-1.808C2.015 5.046 2.28 4.55 3.598 4.55c1.358 0 1.804.866 1.571 3.044-.117 1.095-.088 1.719.081 1.719.146 0 .632.308 1.08.685.614.517.806.89.782 1.521l-.03.837-.169-.785c-.113-.528-.538-1.032-1.3-1.544l-1.133-.76.177-1.957c.172-1.893.157-1.964-.454-2.19-.675-.252-1.299-.123-1.629.337-.112.156-.134 1.118-.048 2.136l.156 1.852-1.077.603c-.881.495-1.076.746-1.076 1.39 0 .432-.119.785-.264.785-.146 0-.265-.36-.265-.799zm11.377.019c0-.65.211-.957 1.059-1.537l1.058-.725-.163-1.653c-.208-2.109.256-2.977 1.592-2.977.496 0 1.044.189 1.244.43.354.426.438 1.954.182 3.316-.111.596.046.83 1.02 1.516.926.653 1.152.969 1.152 1.611 0 .44-.12.8-.265.8-.145 0-.264-.342-.264-.76 0-.594-.234-.912-1.082-1.474l-1.082-.716.18-1.55c.278-2.404-.21-3.151-1.7-2.6-.6.222-.616.299-.443 2.2l.178 1.97-1.068.674c-.77.486-1.069.854-1.069 1.317 0 .354-.119.716-.264.806-.155.096-.265-.174-.265-.648zm2.33-8.404c.853-.163.608-.612-.816-1.494C10.608.13 7.012.305 4.752 1.943c-1.234.894-1.591.973-.89.198C4.697 1.216 6.876.267 8.502.12c1.862-.169 3.901.426 5.322 1.552.903.716.993.74.993.26 0-.289.119-.599.264-.689.16-.098.265.262.265.91v1.075l-1.125-.036c-.636-.02-.859-.087-.514-.153z" fill="#6e6e6e"/><path d="M5.953 15.271c-.727-.358-1.59-.847-1.918-1.088-.568-.416-.595-.41-.595.125 0 .309-.127.561-.281.561-.162 0-.246-.418-.198-.992.077-.938.136-.997 1.074-1.074 1.053-.087 1.407.383.397.526-.556.08-.534.132.345.805 2.353 1.8 5.994 1.829 8.644.07 1.446-.96 1.99-.853.621.122-2.475 1.763-5.67 2.136-8.089.945zM0 11.424c0-.644.227-.959 1.172-1.625l1.172-.826-.155-1.854c-.174-2.073.127-2.569 1.56-2.569 1.194 0 1.643.963 1.42 3.044-.117 1.095-.088 1.719.081 1.719.146 0 .632.308 1.08.685.614.517.806.89.782 1.521l-.03.837-.169-.785c-.113-.528-.538-1.032-1.3-1.544l-1.133-.76.175-1.934c.161-1.776.131-1.957-.368-2.225-.566-.303-1.361-.14-1.713.35-.112.155-.134 1.117-.048 2.135l.156 1.852-1.077.603c-.881.495-1.076.746-1.076 1.39 0 .432-.119.785-.264.785-.146 0-.265-.36-.265-.799zm11.377.019c0-.65.211-.957 1.059-1.537l1.058-.725-.163-1.653c-.208-2.109.256-2.977 1.592-2.977.496 0 1.044.189 1.244.43.354.426.438 1.954.182 3.316-.111.596.046.83 1.02 1.516.926.653 1.152.969 1.152 1.611 0 .44-.12.8-.265.8-.145 0-.264-.356-.264-.791 0-.637-.21-.923-1.083-1.474l-1.082-.683.18-1.55c.28-2.406-.209-3.153-1.7-2.602-.599.222-.615.299-.442 2.2l.178 1.97-1.068.674c-.77.486-1.069.854-1.069 1.317 0 .354-.119.716-.264.806-.155.096-.265-.174-.265-.648zm2.33-8.404c.853-.163.608-.612-.816-1.494C10.608.13 7.012.305 4.752 1.943c-1.234.894-1.591.973-.89.198C4.697 1.216 6.876.267 8.502.12c1.862-.169 3.901.426 5.322 1.552.92.73.993.747.993.245 0-.298.119-.541.264-.541.146 0 .265.416.265.926 0 .918-.01.925-1.125.89-.636-.02-.859-.087-.514-.153z" fill="#696969"/><path d="M6.518 15.54c-.562-.2-1.455-.674-1.984-1.052-.927-.662-.965-.668-1.047-.153-.152.96-.61.56-.526-.458.077-.938.136-.997 1.074-1.074.574-.048.992.036.992.198 0 .154-.256.28-.57.28-.547 0-.551.022-.107.513.618.682 2.404 1.49 3.757 1.698 1.663.255 3.752-.252 5.319-1.292 1.442-.958 1.983-.847.616.126-2.197 1.565-5.186 2.047-7.524 1.214zM0 11.424c0-.644.227-.959 1.172-1.625l1.172-.826-.155-1.854c-.174-2.073.127-2.569 1.56-2.569 1.172 0 1.64.967 1.44 2.978L5.027 9.18l1.06.725c.889.61 1.053.863 1.026 1.587l-.03.863-.169-.785c-.113-.528-.538-1.032-1.3-1.544l-1.133-.76.175-1.934c.161-1.776.131-1.957-.368-2.225-.566-.303-1.361-.14-1.713.35-.112.155-.134 1.117-.048 2.135l.156 1.852-1.077.603c-.881.495-1.076.746-1.076 1.39 0 .432-.119.785-.264.785-.146 0-.265-.36-.265-.799zm11.377.019c0-.644.214-.962 1.035-1.537 1.046-.733 1.45-1.593 1.046-2.23-.358-.563-.26-1.904.183-2.537.5-.713 1.989-.806 2.526-.158.375.451.438 2.148.122 3.276-.162.575-.026.776 1.023 1.516.99.697 1.209 1 1.209 1.667 0 .476-.11.747-.265.651-.145-.09-.264-.452-.264-.806 0-.464-.3-.832-1.083-1.326l-1.082-.683.18-1.55c.1-.853.106-1.784.015-2.07-.203-.64-1.113-.909-1.811-.535-.472.252-.504.46-.344 2.225l.176 1.948-1.068.674c-.77.486-1.069.854-1.069 1.317 0 .354-.119.716-.264.806-.155.096-.265-.174-.265-.648zm2.33-8.404c.853-.163.608-.612-.816-1.494C10.608.13 7.012.305 4.752 1.943c-1.276.924-1.608.972-.803.115.814-.866 2.963-1.755 4.67-1.931 1.735-.18 3.806.436 5.205 1.545.92.73.993.747.993.245 0-.298.119-.541.264-.541.146 0 .265.416.265.926 0 .918-.01.925-1.125.89-.636-.02-.859-.087-.514-.153z" fill="#656565"/><path d="M6.518 15.54c-.562-.2-1.455-.674-1.984-1.052-.927-.662-.965-.668-1.047-.153-.152.96-.61.56-.526-.458.077-.938.136-.997 1.074-1.074.574-.048.992.036.992.198 0 .154-.256.28-.57.28-.547 0-.551.022-.107.513.644.712 2.43 1.5 3.878 1.712 1.681.245 3.556-.228 5.2-1.313 1.443-.952 1.976-.836.614.133-2.197 1.565-5.186 2.047-7.524 1.214zM0 11.424c0-.644.227-.959 1.172-1.625l1.172-.826-.155-1.854c-.174-2.073.127-2.569 1.56-2.569 1.172 0 1.64.967 1.44 2.978L5.027 9.18l1.06.725c.894.613 1.052.858 1.018 1.587-.038.828-.044.833-.152.116-.077-.516-.476-1.004-1.289-1.577l-1.177-.83.172-1.901c.158-1.744.127-1.926-.373-2.194-.737-.394-.995-.369-1.51.147-.363.361-.408.75-.26 2.228l.18 1.79-1.083.717c-.85.563-1.083.882-1.083 1.477 0 .417-.119.758-.264.758-.146 0-.265-.36-.265-.799zm11.377.016c0-.661.218-.968 1.152-1.627.867-.611 1.127-.953 1.05-1.383-.392-2.23-.39-2.59.024-3.22.514-.784 1.994-.917 2.564-.23.375.452.438 2.15.122 3.277-.162.575-.026.776 1.023 1.516.99.697 1.209 1 1.209 1.667 0 .476-.11.747-.265.651-.145-.09-.264-.453-.264-.806 0-.464-.3-.832-1.083-1.326l-1.082-.683.18-1.55c.1-.853.104-1.79.01-2.085-.218-.687-1.023-.94-1.754-.549-.535.287-.561.436-.396 2.254l.176 1.948-1.068.674c-1.009.637-1.184.9-1.093 1.64a.539.539 0 01-.233.479c-.164.1-.272-.157-.272-.647zm2.513-8.445l.794-.17-.992-.755C12.332 1.032 11.002.605 9.128.605c-1.84 0-3.202.426-4.48 1.4-1.139.869-1.49.895-.7.053C4.764 1.192 6.913.303 8.62.127c1.734-.18 3.805.436 5.204 1.545.92.73.993.747.993.245 0-.298.119-.542.264-.542.146 0 .265.417.265.927 0 .918-.01.925-1.125.894-1.01-.028-1.043-.048-.33-.2z" fill="#616161"/><path d="M6.518 15.54c-.562-.2-1.455-.674-1.984-1.052-.927-.662-.965-.668-1.047-.153-.152.96-.61.56-.526-.458.077-.938.136-.997 1.074-1.074.574-.048.992.036.992.198 0 .154-.32.28-.713.28h-.713l.912.68c2.743 2.047 6.205 2.132 8.984.22.726-.5 1.32-.795 1.32-.657 0 .338-1.294 1.238-2.693 1.873-1.364.62-4.076.688-5.606.143zM0 11.424c0-.644.227-.959 1.172-1.625l1.172-.826-.155-1.854c-.174-2.073.127-2.569 1.56-2.569 1.172 0 1.64.967 1.44 2.978L5.027 9.18l1.06.725c.894.613 1.052.858 1.018 1.587-.038.828-.044.833-.152.116-.077-.516-.476-1.004-1.289-1.577l-1.177-.83.172-1.901c.158-1.744.127-1.926-.373-2.194-.737-.394-.995-.369-1.51.147-.363.361-.408.75-.26 2.23l.18 1.79-1.083.685C.74 10.51.53 10.796.53 11.433c0 .435-.119.79-.264.79-.146 0-.265-.36-.265-.799zm11.377.044c0-.7.205-.987 1.21-1.695 1.036-.731 1.184-.947 1.039-1.516-.436-1.705-.442-2.408-.023-3.047.48-.732 1.602-.89 2.344-.329.465.352.64 2.166.327 3.376-.147.57 0 .784 1.038 1.516.99.697 1.209 1 1.209 1.667 0 .476-.11.747-.265.651-.145-.09-.264-.453-.264-.806 0-.464-.3-.832-1.083-1.326l-1.082-.683.18-1.55c.1-.853.104-1.79.01-2.085-.218-.687-1.023-.94-1.754-.548-.534.286-.56.436-.397 2.24l.175 1.933-1.134.763c-.737.496-1.133.959-1.133 1.323 0 .307-.09.65-.198.76-.11.11-.199-.18-.199-.644zm2.513-8.473l.794-.17-.992-.755C12.332 1.032 11.002.605 9.128.605c-1.84 0-3.202.426-4.48 1.401-1.139.868-1.49.894-.7.052C5.686.21 10.008-.418 12.436.826c.655.335 1.459.855 1.786 1.155l.596.545v-.575c0-.317.119-.575.264-.575.146 0 .265.416.265.926 0 .918-.01.925-1.125.894-1.01-.028-1.043-.048-.33-.2z" fill="#5d5d5d"/><path d="M6.518 15.54c-.562-.2-1.455-.674-1.984-1.052-.927-.662-.965-.668-1.047-.153-.152.96-.61.56-.526-.458.077-.938.136-.997 1.074-1.074 1.093-.09 1.393.393.327.527-.62.078-.58.142.595.94 2.577 1.749 5.916 1.716 8.533-.085.73-.501 1.327-.788 1.327-.637 0 .383-2.302 1.803-3.43 2.117-1.317.365-3.662.305-4.869-.125zM0 11.424c0-.644.227-.959 1.172-1.625l1.172-.826-.155-1.854c-.174-2.073.127-2.569 1.56-2.569 1.172 0 1.64.967 1.44 2.978L5.027 9.18l1.06.725c.894.613 1.052.858 1.018 1.587-.038.828-.044.833-.152.116-.077-.516-.476-1.004-1.289-1.577l-1.177-.83.172-1.901c.158-1.744.127-1.926-.373-2.194-.737-.394-.995-.369-1.51.147-.363.361-.408.75-.26 2.23l.18 1.79-1.083.685C.74 10.51.53 10.796.53 11.433c0 .435-.119.79-.264.79-.146 0-.265-.36-.265-.799zm11.377.016c0-.667.22-.97 1.21-1.667 1.036-.731 1.184-.947 1.039-1.516-.629-2.458-.243-3.707 1.146-3.707 1.433 0 1.734.496 1.56 2.57l-.155 1.853 1.172.826c.954.672 1.172.978 1.172 1.64 0 .477-.11.748-.265.652-.145-.09-.264-.453-.264-.806 0-.464-.3-.832-1.083-1.326l-1.082-.683.18-1.55c.1-.853.104-1.79.01-2.085-.218-.687-1.023-.94-1.754-.549-.533.286-.56.44-.4 2.209l.172 1.902-1.224.862c-.919.648-1.19.991-1.09 1.378.075.283.028.582-.104.663-.132.082-.24-.218-.24-.666zm2.513-8.445l.794-.17-.992-.755C12.332 1.032 11.002.605 9.128.605c-1.855 0-3.203.426-4.516 1.428-.518.395-1.005.656-1.082.58C3.247 2.33 5.7.818 7.105.41c2.319-.674 5.476.015 7.113 1.553l.599.562V1.95c0-.317.119-.576.264-.576.146 0 .265.417.265.927 0 .917-.01.925-1.125.894-1.01-.028-1.043-.048-.33-.2z" fill="#595959"/><path d="M6.247 15.398c-.711-.278-1.552-.749-1.869-1.046-.723-.68-.938-.682-.938-.012 0 .291-.127.53-.281.53-.162 0-.246-.419-.198-.993.077-.938.136-.997 1.074-1.074 1.13-.094 1.378.4.266.527-.696.08-.671.119.62.944 2.725 1.744 5.954 1.71 8.57-.089.729-.501 1.326-.788 1.326-.637 0 .383-2.302 1.803-3.43 2.117-1.458.405-3.72.287-5.14-.267zM0 11.424c0-.644.227-.959 1.172-1.625l1.172-.826-.155-1.854c-.174-2.073.127-2.569 1.56-2.569 1.172 0 1.64.967 1.44 2.978L5.027 9.18l1.06.725c.894.613 1.052.858 1.018 1.587-.038.828-.044.833-.152.116-.077-.516-.476-1.004-1.289-1.577l-1.177-.83.172-1.901c.16-1.77.133-1.923-.4-2.208-.731-.391-1.536-.14-1.755.548-.093.294-.088 1.232.01 2.085l.18 1.55-1.082.683C.74 10.51.53 10.796.53 11.433c0 .435-.119.79-.264.79-.146 0-.265-.36-.265-.799zm11.377.016c0-.667.22-.97 1.21-1.667 1.036-.731 1.184-.947 1.039-1.516-.629-2.458-.243-3.707 1.146-3.707 1.433 0 1.734.496 1.56 2.57l-.155 1.853 1.172.826c.954.672 1.172.978 1.172 1.64 0 .477-.11.748-.265.652-.145-.09-.264-.453-.264-.806 0-.463-.3-.831-1.069-1.317l-1.068-.674.176-1.948c.167-1.838.143-1.965-.42-2.266-.453-.242-.757-.247-1.26-.017-.646.294-.659.355-.49 2.22l.174 1.92-1.224.862c-.919.648-1.19.991-1.09 1.378.075.283.028.582-.104.663-.132.082-.24-.218-.24-.666zm2.458-8.403c.566-.085.774-.291.893-.886.214-1.072.618-.974.618.15 0 .92-.008.926-1.125.887-.808-.029-.917-.071-.386-.151zm-9.998-.869c.264-.291 1.146-.857 1.96-1.257C6.993.324 7.63.187 9.128.195c1.985.01 4.168.76 5.05 1.734.622.688.323.634-.836-.153C10.84.078 7.043.18 4.647 2.006c-1.079.823-1.48.903-.81.162z" fill="#535353"/><path d="M6.196 15.383c-.74-.285-1.633-.838-1.985-1.23l-.64-.712.795.493c.436.27 1.04.652 1.341.846.302.194 1.205.484 2.007.646 1.954.392 4.041-.048 5.782-1.22.726-.488 1.32-.775 1.32-.636 0 .365-2.333 1.79-3.43 2.095-1.463.406-3.718.284-5.19-.282zM2.96 13.877c.077-.938.136-.997 1.074-1.074 1.13-.094 1.377.4.264.527-.571.066-.745.24-.81.812-.129 1.113-.622.865-.528-.265zM0 11.44c0-.663.218-.969 1.172-1.641l1.172-.826-.155-1.854c-.174-2.073.127-2.569 1.56-2.569 1.172 0 1.64.967 1.44 2.978L5.027 9.18l1.06.725c.894.613 1.052.858 1.018 1.587-.038.828-.044.833-.152.116-.077-.516-.476-1.004-1.289-1.577l-1.177-.83.172-1.901c.16-1.77.133-1.923-.4-2.208-.731-.391-1.536-.14-1.755.548-.093.294-.088 1.232.01 2.085l.18 1.55-1.082.683C.83 10.453.53 10.821.53 11.285c0 .353-.119.716-.264.806C.11 12.187 0 11.916 0 11.44zm11.377 0c0-.667.22-.97 1.21-1.667 1.034-.73 1.184-.948 1.042-1.516-.396-1.573-.424-2.027-.164-2.707.328-.861 1.367-1.198 2.335-.757.66.301.675.361.532 2.248l-.146 1.938 1.167.823c.95.67 1.168.975 1.168 1.638 0 .476-.11.747-.265.651-.145-.09-.264-.453-.264-.806 0-.463-.3-.831-1.069-1.317l-1.068-.674.176-1.948c.167-1.838.143-1.965-.42-2.266-.453-.242-.757-.247-1.26-.017-.646.294-.659.355-.49 2.22l.174 1.92-1.224.862c-.919.648-1.19.992-1.09 1.378.075.283.028.582-.104.663-.132.082-.24-.218-.24-.666zm2.458-8.403c.566-.085.774-.291.893-.886.214-1.072.618-.974.618.15 0 .92-.008.926-1.125.887-.808-.029-.917-.071-.386-.15zm-9.998-.869c.264-.291 1.146-.857 1.96-1.257C6.993.324 7.63.187 9.128.195c1.985.01 4.168.76 5.05 1.734.622.688.323.634-.836-.153C10.84.078 7.043.18 4.647 2.006c-1.079.823-1.48.903-.81.162z" fill="#4b4b4b"/><path d="M6.466 15.504c-.592-.21-1.485-.748-1.985-1.196-.878-.787-.882-.799-.115-.348.436.257 1.04.626 1.341.82.302.194 1.205.484 2.007.646 1.954.392 4.041-.048 5.782-1.22.726-.488 1.32-.794 1.32-.678 0 .33-1.98 1.62-3.094 2.018-1.302.464-3.89.444-5.256-.042zM2.96 13.877c.077-.938.136-.997 1.074-1.074 1.13-.094 1.377.4.264.527-.571.066-.745.24-.81.812-.129 1.113-.622.865-.528-.265zM.047 11.4c.067-.693.32-1.036 1.194-1.622l1.108-.742-.158-1.885c-.176-2.107.119-2.6 1.558-2.6 1.172 0 1.64.967 1.44 2.978L5.027 9.18l1.06.725c.894.613 1.052.858 1.018 1.587-.038.828-.044.833-.152.116-.077-.516-.476-1.004-1.289-1.577l-1.177-.83.172-1.901c.16-1.77.133-1.923-.4-2.208-.731-.391-1.536-.14-1.755.548-.093.294-.088 1.232.01 2.085l.18 1.55-1.082.683C.83 10.453.53 10.821.53 11.285c0 .353-.127.721-.283.818-.185.114-.254-.13-.199-.704zm11.37.091c-.034-.745.127-.983 1.17-1.717 1.034-.73 1.184-.948 1.042-1.516-.396-1.573-.424-2.027-.164-2.707.328-.861 1.367-1.198 2.335-.757.66.301.675.361.532 2.248l-.146 1.938 1.167.823c.95.67 1.168.975 1.168 1.638 0 .476-.11.747-.265.651-.145-.09-.264-.452-.264-.805 0-.457-.308-.846-1.066-1.348l-1.066-.705.174-1.917c.164-1.806.14-1.935-.423-2.236-.453-.242-.757-.246-1.26-.017-.646.294-.659.355-.49 2.221l.174 1.919-1.177.83c-.813.572-1.212 1.06-1.29 1.576-.107.714-.113.71-.151-.119zm2.311-8.454c.854-.161 1.299-.621 1.15-1.19-.068-.259.01-.47.172-.47.163 0 .296.416.296.926 0 .918-.01.925-1.125.89-.68-.022-.874-.084-.493-.156zm-9.89-.868C4.1 1.877 4.982 1.311 5.796.911c1.959-.962 4.524-1 6.553-.096 1.321.587 2.591 1.619 1.994 1.619-.16 0-.371-.131-.47-.292-.1-.16-.791-.576-1.537-.923C9.95.107 6.7.44 4.647 2.006c-1.079.823-1.48.903-.81.162z" fill="#464646"/><path d="M6.466 15.504c-.592-.21-1.485-.749-1.985-1.197-.517-.465-.624-.63-.248-.383 3.26 2.136 6.666 2.192 9.476.157.61-.442 1.108-.699 1.108-.572 0 .365-1.874 1.564-3.142 2.01-1.424.502-3.773.495-5.21-.015zM2.96 13.877c.077-.938.136-.997 1.074-1.074 1.13-.094 1.377.4.264.527-.571.066-.745.24-.81.812-.129 1.113-.622.865-.528-.265zM.047 11.4c.067-.693.32-1.036 1.194-1.622l1.108-.742-.158-1.885c-.137-1.638-.094-1.93.331-2.242.71-.519 1.63-.439 2.265.196.49.49.535.757.392 2.315l-.162 1.762 1.063.725c.9.613 1.058.857 1.024 1.587-.038.828-.044.833-.152.116-.077-.516-.476-1.004-1.289-1.577l-1.177-.83.172-1.901c.16-1.77.133-1.923-.4-2.208-.731-.391-1.536-.14-1.755.548-.093.294-.088 1.232.01 2.085l.18 1.55-1.082.683C.83 10.453.53 10.821.53 11.285c0 .353-.127.721-.283.818-.185.114-.254-.13-.199-.704zm11.37.091c-.034-.745.127-.983 1.17-1.717 1.034-.73 1.184-.948 1.042-1.516-.396-1.573-.424-2.027-.164-2.707.328-.861 1.367-1.198 2.335-.757.66.301.675.361.532 2.248l-.146 1.938 1.167.823c.95.67 1.168.975 1.168 1.638 0 .476-.11.747-.265.651-.145-.09-.264-.452-.264-.805 0-.457-.308-.846-1.066-1.348l-1.066-.705.174-1.917c.164-1.806.14-1.935-.423-2.236-.453-.242-.757-.246-1.26-.017-.646.294-.659.355-.49 2.221l.174 1.919-1.177.83c-.813.572-1.212 1.06-1.29 1.576-.107.714-.113.71-.151-.119zm2.311-8.454c.854-.161 1.299-.621 1.15-1.19-.068-.259.01-.47.172-.47.163 0 .296.416.296.926 0 .918-.01.925-1.125.89-.68-.022-.874-.084-.493-.156zm-9.89-.868C4.1 1.877 4.982 1.311 5.796.911c1.959-.962 4.524-1 6.553-.096 1.321.587 2.591 1.619 1.994 1.619-.16 0-.371-.131-.47-.292-.1-.16-.791-.576-1.537-.923C9.95.107 6.7.44 4.647 2.006c-1.079.823-1.48.903-.81.162z" fill="#414141"/><path d="M6.466 15.504c-.592-.21-1.485-.749-1.985-1.197-.517-.465-.624-.63-.248-.383 3.28 2.15 6.648 2.205 9.476.157.61-.442 1.108-.699 1.108-.572 0 .365-1.874 1.564-3.142 2.01-1.424.502-3.773.495-5.21-.015zM2.91 13.972c0-.949.328-1.22 1.477-1.22.881 0 .81.475-.088.578-.571.066-.745.24-.81.812-.12 1.037-.579.902-.579-.17zM0 11.458c0-.645.224-.95 1.175-1.605l1.175-.809-.158-1.889c-.138-1.643-.095-1.936.33-2.247.71-.519 1.63-.439 2.266.197.556.557.57.81.17 3.192-.098.59.07.836 1.034 1.516.985.694 1.146.937 1.112 1.677-.038.828-.044.833-.152.119-.077-.516-.476-1.004-1.289-1.577l-1.177-.83.172-1.901c.162-1.79.137-1.92-.424-2.221-.453-.242-.757-.247-1.26-.017-.646.294-.66.353-.489 2.236l.176 1.934-1.066.705c-.758.502-1.066.89-1.066 1.347 0 .354-.119.716-.264.806-.154.095-.265-.17-.265-.633zm11.417.032c-.034-.745.127-.983 1.17-1.717 1.037-.732 1.184-.947 1.037-1.516-.348-1.348-.205-2.997.29-3.36a1.778 1.778 0 012.084.011c.426.311.469.604.331 2.242l-.157 1.885 1.108.742c.874.586 1.127.929 1.193 1.622.057.587-.01.82-.205.7-.16-.1-.273-.32-.252-.49.091-.738-.083-1.005-1.09-1.67l-1.066-.706.174-1.917c.164-1.806.14-1.935-.423-2.236-.453-.242-.757-.247-1.26-.017-.646.294-.659.355-.49 2.221l.174 1.919-1.177.83c-.813.572-1.212 1.06-1.29 1.576-.107.714-.113.71-.151-.119zm2.407-8.452c.94-.142.915-.342-.134-1.054C11.977.82 10.845.514 8.733.639c-2.025.12-3.32.59-4.432 1.606-.327.3-.666.473-.753.386-.087-.087.352-.527.975-.978C6.015.57 8.198-.053 9.817.139c1.51.179 3.725 1.089 4.36 1.79.595.658.984.645.772-.024-.096-.304-.048-.53.114-.53.156 0 .283.417.283.927 0 .919-.008.925-1.125.886-.79-.028-.907-.073-.397-.15z" fill="#3e3e3e"/><path d="M6.466 15.504c-.592-.21-1.485-.749-1.985-1.197-.517-.465-.624-.63-.248-.383 3.28 2.15 6.648 2.205 9.476.157.61-.442 1.108-.699 1.108-.572 0 .365-1.874 1.564-3.142 2.01-1.424.502-3.773.495-5.21-.015zm-3.556-1.54c0-.789.102-.927.788-1.078.433-.095.939-.077 1.124.04.227.143.077.258-.456.351-.627.11-.812.293-.878.866-.12 1.04-.578.898-.578-.179zM0 11.458c0-.645.224-.95 1.175-1.605l1.175-.809-.15-1.797C2.075 5.772 2.13 5.37 2.497 5c.612-.611 1.62-.565 2.29.105.559.559.585 1.32.11 3.152-.148.57-.002.784 1.037 1.516 1.042.734 1.203.972 1.17 1.717-.039.828-.045.833-.153.119-.077-.516-.476-1.004-1.289-1.577l-1.177-.83.172-1.901c.162-1.79.137-1.92-.424-2.221-.453-.242-.757-.247-1.26-.017-.646.294-.66.353-.489 2.236l.176 1.934-1.066.705c-.758.502-1.066.89-1.066 1.347 0 .354-.119.716-.264.806-.154.095-.265-.17-.265-.633zm11.417.032c-.034-.745.127-.983 1.17-1.717 1.03-.727 1.185-.95 1.046-1.516-.307-1.255-.14-3.029.319-3.376.57-.432 1.434-.42 2.046.027.426.311.469.604.331 2.242l-.157 1.885 1.108.742c.874.586 1.127.929 1.193 1.622.057.582-.012.819-.202.701-.159-.098-.221-.286-.14-.419.251-.405-.348-1.232-1.335-1.842l-.938-.58.175-1.93c.165-1.82.14-1.948-.422-2.249-.453-.242-.757-.246-1.26-.017-.646.294-.659.355-.49 2.221l.174 1.919-1.177.83c-.813.572-1.212 1.06-1.29 1.576-.107.714-.113.71-.151-.119zm2.407-8.452c.85-.128.899-.276.265-.788C11.938.51 8.413.057 5.953 1.204c-.727.339-1.486.814-1.686 1.055-.2.242-.486.44-.636.44-.556 0 .73-1.082 2.033-1.711 2.724-1.314 5.664-1.078 8.043.645 1.301.943 1.466.979 1.242.272-.096-.304-.048-.53.114-.53.156 0 .283.417.283.927 0 .919-.008.925-1.125.886-.79-.028-.907-.073-.397-.15z" fill="#393939"/><path d="M6.466 15.504c-.592-.21-1.485-.749-1.985-1.197-.517-.465-.624-.63-.248-.383 3.28 2.15 6.648 2.205 9.476.157.61-.442 1.108-.699 1.108-.572 0 .365-1.874 1.564-3.142 2.01-1.424.502-3.773.495-5.21-.015zm-3.357-.787c-.11-.11-.199-.528-.199-.93 0-.592.147-.76.788-.9.433-.096.939-.078 1.124.039.227.143.078.258-.454.352-.614.109-.822.309-.926.89-.074.411-.224.659-.333.548zm3.77-3.16c0-.49-.317-.89-1.196-1.51l-1.197-.844.172-1.902c.162-1.79.137-1.92-.424-2.221-.453-.242-.757-.247-1.26-.017-.646.294-.66.353-.489 2.236l.176 1.934-1.066.705c-.77.51-1.066.888-1.066 1.363 0 .362-.119.658-.264.658-.146 0-.265-.292-.265-.649 0-.471.326-.873 1.191-1.468l1.192-.82-.167-1.787C2.08 5.758 2.128 5.371 2.5 5c.611-.61 1.619-.564 2.289.106.559.559.585 1.32.11 3.152-.148.57-.002.784 1.037 1.516.98.691 1.209 1.003 1.209 1.651 0 .44-.06.8-.133.8-.072 0-.132-.3-.132-.668zm4.538-.067c-.034-.741.127-.983 1.128-1.688l1.167-.823-.146-1.938c-.144-1.906-.135-1.944.563-2.262.493-.224.928-.245 1.426-.068.696.248.717.315.717 2.317V9.09l1.058.717c.822.557 1.078.914 1.143 1.594.051.523-.019.812-.173.717-.142-.088-.198-.392-.124-.675.101-.386-.17-.73-1.09-1.378l-1.223-.862.172-1.902c.162-1.79.137-1.92-.424-2.221-.453-.242-.757-.247-1.26-.017-.646.294-.659.355-.49 2.221l.174 1.919-1.177.83c-.813.572-1.212 1.06-1.29 1.576-.107.714-.113.71-.151-.119zm2.407-8.452c.85-.128.899-.276.265-.788C11.938.51 8.413.057 5.953 1.204c-.727.339-1.486.814-1.686 1.055-.2.242-.482.44-.628.44-.453 0 .37-.795 1.523-1.471 2.596-1.522 5.827-1.406 8.36.299 1.573 1.059 1.65 1.079 1.427.378-.096-.304-.048-.53.114-.53.156 0 .283.417.283.927 0 .919-.008.925-1.125.886-.79-.028-.907-.073-.397-.15z" fill="#323232"/><path d="M6.466 15.504c-.592-.21-1.485-.749-1.985-1.197-.517-.465-.624-.63-.248-.383 3.28 2.15 6.648 2.205 9.476.157.61-.442 1.108-.699 1.108-.572 0 .365-1.874 1.564-3.142 2.01-1.424.502-3.773.495-5.21-.015zm-3.357-.787c-.11-.11-.199-.524-.199-.92 0-.691.494-1.03 1.522-1.04.58-.007.354.485-.263.572-.415.06-.634.311-.728.836-.073.413-.223.662-.332.552zm3.77-3.153c0-.472-.32-.893-1.124-1.478L4.63 9.268V7.274c0-2.314-.352-2.805-1.602-2.236-.711.324-.716.344-.543 2.261l.176 1.934-1.066.705c-.77.51-1.066.888-1.066 1.363 0 .362-.119.658-.264.658-.146 0-.265-.292-.265-.649 0-.471.326-.873 1.191-1.468l1.192-.82-.167-1.787C2.08 5.758 2.128 5.371 2.5 5c.611-.61 1.619-.564 2.289.106.559.559.585 1.32.11 3.152-.148.57-.002.784 1.037 1.516.98.691 1.209 1.003 1.209 1.651 0 .44-.06.8-.133.8-.072 0-.132-.298-.132-.66zm4.593-.124c.03-.753.225-1.042 1.096-1.633l1.058-.717V7.028c0-2.002.02-2.069.717-2.317.498-.177.933-.157 1.426.068.7.319.708.352.56 2.298L16.18 9.05l1.17.805c.947.651 1.17.958 1.17 1.602 0 .438-.107.73-.239.648-.132-.081-.179-.38-.105-.663.101-.386-.17-.73-1.09-1.378l-1.223-.862.172-1.902c.162-1.79.137-1.92-.424-2.221-.453-.242-.757-.246-1.26-.017-.646.294-.659.355-.49 2.221l.174 1.919-1.177.83c-.801.564-1.217 1.068-1.3 1.576-.099.6-.116.567-.086-.169zm2.352-8.402c.85-.129.899-.276.265-.788C11.938.51 8.413.057 5.953 1.204c-.727.339-1.486.814-1.686 1.055-.2.242-.482.44-.628.44-.453 0 .37-.795 1.523-1.471 2.596-1.522 5.827-1.406 8.36.299 1.573 1.058 1.65 1.079 1.427.378-.096-.304-.048-.53.114-.53.156 0 .283.417.283.927 0 .919-.008.925-1.125.886-.79-.028-.907-.073-.397-.15z" fill="#2d2d2d"/><path d="M6.615 15.522c-.655-.202-1.608-.731-2.117-1.175l-.926-.808 1.327.798c2.835 1.706 5.938 1.659 8.597-.13.726-.49 1.32-.794 1.32-.678 0 .325-2.04 1.602-3.233 2.023-1.325.467-3.403.455-4.968-.03zm-3.549-.956c-.43-.979.1-1.75 1.233-1.795.68-.027.566.46-.13.558-.419.06-.64.32-.752.879-.122.61-.203.693-.35.358zM6.92 11.63c-.029-.526-.35-.952-1.164-1.544L4.63 9.268V7.274c0-2.314-.352-2.805-1.602-2.236-.711.324-.716.344-.543 2.261l.176 1.934-1.066.705c-.77.51-1.066.888-1.066 1.363 0 .362-.119.658-.264.658-.373 0-.33-.878.066-1.364.182-.223.717-.671 1.19-.995l.86-.588-.165-1.782c-.18-1.937.169-2.68 1.26-2.68 1.479 0 2.165 1.51 1.51 3.32-.338.937-.324 1.002.298 1.411 1.55 1.02 1.91 1.479 1.79 2.287l-.116.788zm11.307.395a3.58 3.58 0 01.015-.656c.028-.273-.441-.801-1.166-1.312l-1.212-.854.172-1.902c.162-1.79.137-1.92-.424-2.221-.453-.242-.757-.247-1.26-.017-.646.294-.659.355-.49 2.22l.174 1.92-1.176.828c-.646.456-1.233 1.106-1.304 1.444-.096.454-.119.41-.088-.167.032-.594.298-.956 1.1-1.5l1.06-.718V7.028c0-2.002.02-2.069.716-2.317.498-.177.933-.157 1.426.068.7.319.708.352.56 2.298l-.15 1.973 1.17.805c.938.645 1.17.96 1.17 1.586 0 .69-.213 1.112-.294.583zm-4.27-8.984c.717-.138.744-.297.133-.79C11.938.51 8.413.056 5.953 1.203c-.727.339-1.486.814-1.686 1.055-.2.242-.482.44-.628.44-.453 0 .37-.795 1.523-1.471 2.596-1.522 5.827-1.406 8.36.299 1.573 1.058 1.65 1.079 1.427.378-.096-.304-.048-.53.114-.53.156 0 .283.417.283.927 0 .9-.028.925-.992.89-.615-.023-.766-.08-.397-.151z" fill="#2a2a2a"/><path d="M6.615 15.522c-.655-.202-1.608-.731-2.117-1.175l-.926-.808 1.327.798c2.835 1.706 5.938 1.659 8.597-.13 1.553-1.046 1.788-.867.272.206-2.108 1.49-4.648 1.885-7.153 1.11zm-3.511-.825c-.274-.434-.13-1.68.195-1.683.15-.002.54-.076.868-.164.34-.09.596-.04.596.118 0 .152-.268.315-.594.361-.424.06-.634.312-.733.879-.083.468-.219.669-.332.49zm3.815-3.023c-.04-.677-.747-1.5-1.76-2.044-.458-.247-.529-.557-.529-2.318 0-2.354-.346-2.846-1.602-2.274-.711.324-.716.344-.543 2.261l.176 1.934-1.066.705c-.77.51-1.066.888-1.066 1.363 0 .362-.119.658-.264.658-.373 0-.33-.878.066-1.364.182-.223.717-.671 1.19-.995l.86-.588-.165-1.782c-.18-1.937.169-2.68 1.26-2.68 1.479 0 2.165 1.51 1.51 3.32-.338.937-.324 1.002.298 1.411 1.55 1.02 1.91 1.479 1.79 2.287-.106.72-.119.73-.155.106zm4.548-.368c.033-.606.297-.956 1.15-1.529l1.11-.742-.159-1.885c-.172-2.054.124-2.6 1.413-2.6 1.152 0 1.507.714 1.34 2.697l-.15 1.797 1.175.809c.85.585 1.175.987 1.175 1.457 0 .357-.108.649-.24.649s-.18-.232-.105-.516c.101-.387-.17-.73-1.09-1.378l-1.223-.862.172-1.902c.162-1.79.137-1.92-.424-2.221-.453-.242-.757-.247-1.26-.017-.646.294-.659.355-.49 2.22l.174 1.92-1.176.828c-.646.456-1.233 1.106-1.304 1.444-.095.452-.118.407-.088-.17zm2.49-8.265c.327-.063.594-.196.593-.295-.003-.269-1.577-1.286-2.741-1.771C9.64.072 5.679.718 4.343 2.194c-.544.601-1.12.686-.626.092.623-.75 2.527-1.7 4.002-1.997 1.96-.394 4.037.05 5.803 1.238 1.572 1.057 1.667 1.082 1.483.378-.077-.291-.03-.53.101-.53.132 0 .24.417.24.927 0 .9-.028.925-.992.89-.615-.023-.766-.08-.397-.151z" fill="#252525"/><path d="M6.615 15.522c-.655-.202-1.608-.731-2.117-1.175l-.926-.808 1.327.798c2.835 1.706 5.938 1.659 8.597-.13 1.553-1.046 1.788-.867.272.206-2.108 1.49-4.648 1.885-7.153 1.11zm-3.556-.89c-.239-.387-.057-1.615.24-1.618.15-.002.54-.076.868-.164.328-.087.596-.041.596.103 0 .145-.342.331-.76.415-.646.129-.74.252-.63.826.127.67-.032.893-.314.437zM0 11.416c0-.593 1.083-1.728 1.895-1.985.468-.149.498-.328.333-2-.153-1.557-.109-1.916.292-2.36.554-.611 1.406-.672 2.118-.152.534.39.658 1.955.268 3.367-.17.611-.056.785.957 1.463.888.595 1.16.948 1.196 1.556.03.485-.007.583-.095.256-.193-.72-.6-1.187-1.54-1.763-.77-.472-.794-.548-.794-2.504 0-2.336-.349-2.828-1.602-2.257-.711.324-.716.344-.543 2.261l.176 1.934-1.066.705C.58 10.61.41 10.873.509 11.628c.024.182-.08.33-.233.33-.152 0-.276-.243-.276-.541zm11.467-.111c.033-.606.297-.956 1.15-1.529l1.11-.742-.159-1.885c-.172-2.054.124-2.6 1.413-2.6 1.156 0 1.507.711 1.323 2.685l-.166 1.787 1.192.82c.865.595 1.19.997 1.19 1.468 0 .357-.107.649-.239.649s-.18-.232-.105-.516c.101-.387-.17-.73-1.09-1.378l-1.223-.862.172-1.902c.162-1.79.137-1.92-.424-2.221-.453-.242-.757-.247-1.26-.017-.646.294-.659.355-.49 2.22l.174 1.92-1.176.828c-.646.456-1.233 1.106-1.304 1.444-.095.452-.118.407-.088-.17zm2.49-8.265c.327-.063.594-.196.593-.295-.003-.269-1.577-1.286-2.741-1.771C9.64.072 5.679.718 4.343 2.194c-.544.601-1.12.686-.626.092.623-.75 2.527-1.7 4.002-1.997 1.96-.394 4.037.05 5.803 1.238 1.572 1.057 1.667 1.082 1.483.378-.077-.291-.03-.53.101-.53.132 0 .24.417.24.927 0 .9-.028.925-.992.89-.615-.023-.766-.08-.397-.151z" fill="#212121"/><path d="M6.649 15.531c-.637-.198-1.612-.726-2.168-1.173-1.183-.95-1.402-1.003-1.174-.283.098.307.048.53-.118.53-.158 0-.26-.358-.227-.794.034-.437.184-.795.335-.797.151-.002.543-.076.87-.164.34-.09.596-.04.596.118 0 .152-.268.317-.596.365-.534.08-.482.165.504.83 1.3.879 3.218 1.5 4.629 1.5 1.261 0 3.405-.797 4.606-1.714.501-.382.91-.599.91-.482 0 .374-2.478 1.884-3.571 2.175-1.405.375-3.177.332-4.596-.11zM0 11.417c0-.593 1.083-1.728 1.895-1.985.468-.149.498-.328.333-2-.153-1.557-.109-1.916.292-2.36.55-.607 1.405-.673 2.102-.163.514.375.64 1.95.271 3.378-.157.607-.035.79.97 1.463.895.6 1.157.943 1.187 1.556.032.653.018.672-.079.108-.075-.432-.519-.938-1.229-1.4L4.63 9.29V7.284c0-2.325-.35-2.816-1.602-2.246-.712.325-.716.343-.541 2.274l.176 1.947-.938.58C.722 10.459.14 11.277.4 11.699c.088.143.034.26-.12.26S0 11.715 0 11.417zm11.467-.111c.033-.606.297-.956 1.15-1.529l1.11-.742-.159-1.885c-.172-2.054.124-2.6 1.413-2.6 1.156 0 1.507.711 1.323 2.685l-.166 1.787 1.192.82c.947.651 1.183.966 1.155 1.534-.033.653-.046.662-.154.1-.066-.347-.631-.978-1.292-1.445l-1.176-.828.174-1.919c.172-1.9.167-1.922-.544-2.246-1.25-.57-1.602-.078-1.602 2.236v1.995l-1.105.803c-.607.441-1.162 1.076-1.232 1.41-.092.436-.117.385-.087-.176zm2.49-8.265c.802-.155.748-.368-.267-1.057C12.208.977 10.776.517 9.122.516c-1.73 0-3.972.786-4.779 1.678-.544.601-1.12.686-.626.092.623-.75 2.527-1.7 4.002-1.997 1.96-.394 4.037.05 5.803 1.238 1.572 1.057 1.667 1.082 1.483.378-.077-.291-.03-.53.101-.53.132 0 .24.417.24.927 0 .9-.028.925-.992.89-.615-.023-.766-.08-.397-.151z" fill="#1d1d1d"/><path d="M6.649 15.531c-.637-.198-1.612-.726-2.168-1.173-1.183-.95-1.402-1.003-1.174-.283.098.307.048.53-.118.53-.158 0-.26-.358-.227-.794.042-.548.2-.794.512-.794.248 0 .64-.072.87-.16.23-.089.419-.03.419.132 0 .16-.268.297-.596.302-.566.01-.556.042.199.664 1.073.884 3.346 1.708 4.706 1.707 1.609-.002 2.887-.421 4.408-1.445.735-.495 1.336-.818 1.336-.719 0 .35-2.525 1.865-3.571 2.144-1.405.375-3.177.332-4.596-.11zM0 11.417c0-.593 1.083-1.728 1.895-1.985.468-.149.498-.328.333-2-.153-1.557-.109-1.916.292-2.36a1.505 1.505 0 012.05-.19c.462.349.624 2.118.312 3.405-.146.602-.017.795.98 1.463.896.6 1.158.943 1.188 1.556.032.653.018.672-.079.108-.075-.432-.519-.938-1.229-1.4L4.63 9.29V7.284c0-2.325-.35-2.816-1.602-2.246-.712.325-.716.343-.541 2.274l.176 1.947-.938.58C.722 10.459.14 11.277.4 11.699c.088.143.034.26-.12.26S0 11.715 0 11.417zm11.462-.111c.036-.605.307-.96 1.172-1.54l1.125-.753-.174-1.874c-.153-1.638-.113-1.918.315-2.23.667-.49 1.581-.45 2.122.09.37.372.42.76.282 2.236l-.166 1.787 1.192.82c.947.651 1.183.966 1.155 1.534-.033.653-.046.662-.154.1-.066-.347-.632-.98-1.297-1.448l-1.18-.831.177-1.792c.195-1.982-.059-2.59-1.082-2.59-1.03 0-1.278.606-1.078 2.634.18 1.819.174 1.839-.562 2.22-.9.465-1.564 1.182-1.754 1.893-.086.324-.122.225-.093-.256zm2.495-8.265c.816-.157.745-.362-.403-1.165C12.21.935 10.734.495 8.98.512c-1.606.015-3.87.837-4.636 1.682-.544.601-1.12.686-.626.092C4.359 1.512 6.267.58 7.779.3c2.015-.373 3.994.05 5.743 1.227 1.572 1.057 1.667 1.082 1.483.378-.077-.291-.03-.53.101-.53.132 0 .24.417.24.927 0 .9-.028.925-.992.89-.615-.023-.766-.08-.397-.151z" fill="#191919"/><path d="M6.615 15.49c-.92-.318-3.705-2.097-3.705-2.366 0-.027.417-.098.926-.157.51-.06.927-.013.927.103 0 .117-.268.216-.596.221-.566.01-.556.042.199.664 1.073.884 3.346 1.708 4.706 1.707 1.609-.002 2.887-.421 4.408-1.445.735-.495 1.336-.818 1.336-.719 0 .35-2.525 1.865-3.571 2.144-1.47.393-3.224.335-4.63-.152zM2.91 14.192c0-.227.12-.339.265-.249.342.212.342.662 0 .662-.146 0-.265-.186-.265-.413zM0 11.417c0-.593 1.083-1.728 1.895-1.985.468-.149.498-.328.333-2-.153-1.557-.109-1.916.292-2.36a1.505 1.505 0 012.05-.19c.462.349.624 2.118.312 3.405-.146.602-.017.795.98 1.463.896.6 1.158.943 1.188 1.556.032.667.02.683-.08.102-.078-.454-.515-.935-1.302-1.432l-1.184-.749.17-1.883c.143-1.578.099-1.943-.273-2.252-.327-.27-.632-.3-1.156-.114-.688.246-.711.321-.711 2.272v2.018l-1.15.837c-.846.614-1.115.97-1.017 1.345.073.28.025.509-.107.509S0 11.715 0 11.417zm11.408-.04c-.025-.566.218-.887 1.16-1.535l1.192-.82-.166-1.787c-.185-1.988.166-2.685 1.355-2.685 1.197 0 1.537.69 1.36 2.763l-.16 1.868 1.186.717c.976.59 1.18.848 1.15 1.455-.032.654-.05.668-.154.123-.066-.347-.632-.98-1.297-1.448l-1.18-.831.177-1.792c.195-1.982-.059-2.59-1.082-2.59-1.03 0-1.278.606-1.078 2.633.18 1.82.174 1.84-.562 2.22-.908.47-1.57 1.19-1.742 1.894-.1.408-.136.366-.16-.186zm2.549-8.325c.814-.172.745-.373-.403-1.176-2.752-1.926-6.998-1.764-9.25.351-.329.31-.669.49-.756.404C3.288 2.37 5.56.867 6.722.533c2.462-.709 5.277-.221 7.203 1.248 1.038.791 1.26.817 1.08.124-.077-.291-.023-.53.118-.53.14 0 .22.387.173.86-.075.782-.167.864-1.009.901-.509.023-.658-.015-.33-.084z" fill="#151515"/><path d="M7.144 15.68c-.99-.302-2.676-1.244-3.572-1.995l-.794-.665 1.058.025c.881.02.948.056.397.212-.655.185-.651.193.397.89 3 1.99 5.961 2.014 8.85.07.735-.495 1.336-.818 1.336-.719 0 .35-2.525 1.865-3.571 2.144-1.2.32-3.119.338-4.101.038zM2.91 14.192c0-.227.12-.339.265-.249.342.212.342.662 0 .662-.146 0-.265-.186-.265-.413zM0 11.417c0-.593 1.083-1.728 1.895-1.985.468-.149.498-.328.333-2-.153-1.557-.109-1.916.292-2.36.55-.606 1.405-.673 2.101-.164.426.311.469.604.331 2.242l-.158 1.885 1.109.742c.857.575 1.117.921 1.147 1.529.037.756.034.758-.084.058-.087-.518-.461-.925-1.308-1.421l-1.186-.695.18-1.818c.197-2.008-.053-2.615-1.08-2.615-1.023 0-1.277.608-1.082 2.59l.176 1.792-1.228.865c-.922.65-1.194.994-1.093 1.381.074.284.027.516-.105.516S0 11.715 0 11.417zm11.408-.04c-.025-.566.218-.887 1.16-1.535l1.192-.82-.166-1.787c-.185-1.988.166-2.685 1.355-2.685 1.2 0 1.537.69 1.353 2.763l-.166 1.868 1.056.6c.986.561 1.643 1.687 1.228 2.102-.09.09-.164-.096-.164-.415 0-.386-.4-.86-1.2-1.425l-1.202-.846.177-1.792c.195-1.982-.059-2.59-1.082-2.59-1.03 0-1.278.606-1.078 2.633.18 1.82.174 1.84-.562 2.22-.908.47-1.57 1.19-1.742 1.894-.1.408-.136.366-.16-.186zm2.549-8.325c.819-.173.746-.371-.444-1.212C12.013.778 9.701.247 7.992.57 6.488.857 4.787 1.634 4.249 2.282c-.19.23-.464.416-.61.416-.452 0 .318-.736 1.477-1.412C6.712.354 8.808-.02 10.565.314c1.36.257 3.507 1.293 3.857 1.858.291.472.724.274.583-.267-.077-.291-.023-.53.118-.53.14 0 .22.387.173.86-.075.782-.167.864-1.009.901-.509.023-.658-.015-.33-.084z" fill="#121212"/><path d="M7.144 15.68c-1.501-.458-4.86-2.658-4.063-2.662.166 0 .678.35 1.137.779 2.52 2.353 7.028 2.376 9.953.05.3-.238.128-.044-.38.431-1.462 1.367-4.597 2.028-6.647 1.402zm-4.145-1.46c0-.212.099-.324.22-.25.286.177.286.635 0 .635-.121 0-.22-.174-.22-.386zm1.041-1.098c.088-.088.317-.097.508-.021.21.084.148.147-.16.16-.28.011-.436-.051-.348-.14zM0 11.417c0-.593 1.083-1.728 1.895-1.985.468-.149.498-.328.333-2-.153-1.557-.109-1.916.292-2.36.55-.606 1.405-.673 2.101-.164.426.311.469.604.331 2.242l-.158 1.885 1.109.742c.857.575 1.117.921 1.147 1.529.037.756.034.758-.084.058-.087-.518-.461-.925-1.308-1.421l-1.186-.695.18-1.818c.197-2.008-.053-2.615-1.08-2.615-1.023 0-1.277.608-1.082 2.59l.176 1.792-1.228.865c-.922.65-1.194.994-1.093 1.381.074.284.027.516-.105.516S0 11.715 0 11.417zm11.408-.04c-.025-.566.218-.887 1.16-1.535l1.192-.82-.166-1.787c-.138-1.477-.089-1.864.282-2.236.6-.6 1.545-.567 2.125.074.398.44.445.807.3 2.315L16.13 9.18l1.06.6c.989.561 1.648 1.686 1.231 2.102-.09.09-.164-.096-.164-.415 0-.386-.4-.86-1.2-1.425l-1.202-.846.177-1.792c.195-1.982-.059-2.59-1.082-2.59-1.03 0-1.278.606-1.078 2.633.18 1.82.174 1.84-.562 2.22-.908.47-1.57 1.19-1.742 1.894-.1.408-.136.366-.16-.186zm2.549-8.325c.327-.07.595-.22.595-.337 0-.434-2.179-1.631-3.659-2.01-2.29-.587-4.944.033-6.592 1.54-.327.3-.666.472-.753.385-.087-.087.478-.573 1.256-1.081C6.599.376 8.614-.056 10.565.314c1.36.257 3.507 1.293 3.857 1.858.291.472.724.274.583-.267-.077-.291-.023-.53.118-.53.14 0 .22.387.173.86-.075.782-.167.864-1.009.901-.509.023-.658-.015-.33-.084z" fill="#0d0d0d"/><path d="M7.144 15.68c-1.625-.496-4.848-2.659-3.966-2.662.22 0 .53.21.69.466.161.257.934.823 1.718 1.257 1.252.694 1.683.79 3.542.785 2.144-.005 3.509-.459 5.043-1.679.3-.238.128-.044-.38.431-1.462 1.367-4.597 2.028-6.647 1.402zm-4.145-1.46c0-.212.099-.324.22-.25.286.177.286.635 0 .635-.121 0-.22-.174-.22-.386zM0 11.416c0-.593 1.083-1.728 1.895-1.985.468-.149.498-.328.333-2-.153-1.557-.109-1.916.292-2.36.55-.606 1.405-.673 2.101-.164.428.313.468.593.315 2.236L4.76 9.022l1.191.82c.95.653 1.184.964 1.152 1.534l-.04.715-.11-.727c-.08-.525-.438-.919-1.296-1.421l-1.186-.695.18-1.818c.197-2.008-.053-2.615-1.08-2.615-1.023 0-1.277.608-1.082 2.59l.176 1.792-1.228.865c-.922.65-1.194.994-1.093 1.381.074.284.027.516-.105.516S0 11.715 0 11.417zm11.417-.04c-.032-.57.201-.882 1.151-1.535l1.192-.82-.166-1.787c-.138-1.477-.089-1.864.282-2.236.6-.6 1.545-.567 2.125.074.398.44.445.807.3 2.315L16.13 9.18l1.06.6c.989.561 1.648 1.686 1.231 2.102-.09.09-.164-.073-.164-.363 0-.56-.79-1.405-1.8-1.926-.577-.298-.6-.413-.43-2.148.2-2.025-.048-2.631-1.077-2.631-1.025 0-1.277.608-1.08 2.602l.177 1.805-1.189.751c-.804.508-1.223.973-1.295 1.435l-.106.683zm2.54-8.325c.845-.179.744-.449-.467-1.251C11.875.733 9.537.214 7.91.563c-1.519.326-2.757.903-3.61 1.682-.326.3-.662.475-.746.392C3.242 2.325 5.844.829 7.387.434c2.111-.54 4.294-.146 6.168 1.115.723.487 1.354.885 1.402.885.048 0 .144-.268.213-.595.07-.328.1-.18.069.33-.053.86-.123.93-.967.967-.5.023-.643-.015-.315-.084z" fill="#090909"/><path d="M7.144 15.68c-1.545-.472-4.228-2.227-3.902-2.553.078-.078.436.152.795.512 1.343 1.343 2.802 1.883 5.091 1.883 2.146 0 3.505-.452 5.043-1.675.3-.238.128-.044-.38.431-1.462 1.367-4.597 2.028-6.647 1.402zM2.91 14.488c0-.064.12-.19.265-.28.146-.09.265-.038.265.116 0 .155-.12.28-.265.28-.146 0-.265-.052-.265-.116zM0 11.417c0-.593 1.083-1.728 1.895-1.985.468-.149.498-.328.333-2-.153-1.557-.109-1.916.292-2.36.55-.606 1.405-.673 2.101-.164.428.313.468.593.315 2.236L4.76 9.022l1.191.82c.95.653 1.184.964 1.152 1.534l-.04.715-.11-.727c-.08-.525-.438-.919-1.296-1.421l-1.186-.695.18-1.818c.197-2.008-.053-2.615-1.08-2.615-1.023 0-1.277.608-1.082 2.59l.176 1.792-1.228.865c-.922.65-1.194.994-1.093 1.381.074.284.027.516-.105.516S0 11.715 0 11.417zm11.417-.064c-.033-.609.167-.863 1.146-1.455l1.186-.717-.16-1.868c-.131-1.545-.082-1.944.289-2.315.599-.599 1.543-.566 2.123.075.398.44.445.807.3 2.315L16.13 9.18l1.06.6c.989.561 1.648 1.686 1.231 2.102-.09.09-.164-.073-.164-.363 0-.56-.79-1.405-1.8-1.926-.577-.298-.6-.413-.43-2.148.2-2.025-.048-2.63-1.077-2.63-1.025 0-1.277.607-1.08 2.601l.177 1.805-1.189.751c-.804.508-1.223.973-1.295 1.435-.105.682-.106.682-.145-.055zm2.54-8.301c.327-.07.595-.224.595-.344 0-.466-2.587-1.827-4.027-2.118C8.577.195 6.16.754 4.679 1.942c-.556.445-1.07.75-1.143.676C3.239 2.321 5.89.818 7.387.434c2.111-.54 4.294-.146 6.168 1.115.723.487 1.354.885 1.402.885.048 0 .144-.268.213-.595.07-.328.1-.18.069.33-.053.86-.123.93-.967.967-.5.023-.643-.015-.315-.084z" fill="#050505"/><path d="M7.144 15.68c-1.545-.472-4.228-2.227-3.902-2.553.078-.078.436.152.795.512 2.45 2.45 6.877 2.628 9.854.398l1.058-.793-1.041.949c-1.594 1.454-4.664 2.128-6.764 1.487zM2.91 14.488c0-.064.12-.19.265-.28.146-.09.265-.038.265.116 0 .155-.12.28-.265.28-.146 0-.265-.052-.265-.116zM0 11.417c0-.593 1.083-1.728 1.895-1.985.468-.149.498-.328.333-2-.153-1.557-.109-1.916.292-2.36C3.1 4.433 4.044 4.4 4.644 5c.372.372.42.76.283 2.236l-.166 1.787 1.191.82c.95.653 1.184.964 1.152 1.534l-.04.715-.11-.727c-.08-.525-.438-.919-1.296-1.421l-1.186-.695.18-1.818c.197-2.008-.053-2.615-1.08-2.615-1.03 0-1.278.606-1.078 2.634.18 1.819.174 1.839-.562 2.22-1.037.536-1.76 1.4-1.575 1.883.085.224.04.407-.1.407-.142 0-.257-.244-.257-.542zm11.417-.064c-.033-.609.167-.863 1.146-1.455l1.186-.717-.16-1.868c-.131-1.545-.082-1.944.289-2.315.599-.599 1.543-.566 2.123.075.398.44.445.807.3 2.315L16.13 9.18l1.06.6c.989.561 1.648 1.686 1.231 2.102-.09.09-.164-.073-.164-.363 0-.56-.79-1.405-1.8-1.926-.577-.298-.6-.413-.43-2.148.2-2.025-.048-2.63-1.077-2.63-1.027 0-1.277.606-1.08 2.614l.18 1.818-1.186.695c-.858.502-1.217.896-1.296 1.421l-.11.727zm2.54-8.301c.327-.07.595-.224.595-.344 0-.223-2.187-1.682-2.91-1.942-.328-.118-.321-.146.04-.163.24-.012 1.055.395 1.812.905.757.51 1.415.926 1.463.926.048 0 .144-.268.213-.595.07-.328.1-.18.069.33-.053.86-.123.93-.967.967-.5.023-.643-.015-.315-.084zM4.1 2.028C5.177 1.145 6.444.568 7.621.425c.728-.088.607-.013-.477.294-.8.227-1.895.765-2.432 1.196-.537.43-1.073.78-1.19.774-.118-.005.142-.303.579-.66zM9.983.408c.18-.072.536-.077.794-.01.257.067.11.127-.326.132-.437.005-.647-.05-.468-.122zm-1.18-.25c.087-.09.316-.098.507-.023.211.085.148.148-.16.16-.279.012-.435-.05-.347-.139z"/></svg>