<svg xmlns="http://www.w3.org/2000/svg" width="27.5" height="22" viewBox="0 0 7.276 5.821"><path d="M.132 2.91V0h7.144v5.82H.132z" fill="#fff"/><path d="M.514 5.432C.02 5.06.029 5.044.712 5.036c.392-.005.786-.128.875-.273.09-.146.04-.265-.113-.265-.152 0-.437-.387-.633-.86C.41 2.602.285.265.659.265c.147 0 .267.108.267.24 0 .224 2.056 1.347 2.465 1.347.1 0 .18-.23.18-.51 0-.812.773-1.414 1.564-1.218.377.093.92.168 1.207.167.7-.003.989.53.557 1.026-.192.221-.427.837-.522 1.368A3.935 3.935 0 014.355 5.43c-.975.505-3.176.506-3.841.003z" fill="#eef6f5"/><path d="M.514 5.432c-.496-.375-.491-.389.147-.4.906-.018 1.515-.404.969-.614C1.056 4.198.466 2.704.414 1.336.371.208.39.176.856.598c.431.39 2.205 1.254 2.575 1.254.078 0 .14-.22.14-.488 0-.269.245-.71.543-.98.46-.415.664-.444 1.342-.188.44.166.99.23 1.221.14.28-.107.357-.057.23.148-.106.172-.048.31.13.31.221 0 .196.144-.08.463-.221.254-.477.86-.569 1.345-.214 1.14-1.07 2.33-2.03 2.826-.977.505-3.179.508-3.844.004z" fill="#ddeeec"/><path d="M.514 5.432c-.496-.375-.491-.389.147-.4.906-.018 1.515-.404.969-.614C1.088 4.211.47 2.732.42 1.521.374.386.451.347 1.414 1.02c.387.27 1.03.57 1.43.666.61.148.728.09.728-.352C3.572.518 4.76-.146 5.564.22c.356.162.802.236.99.163.398-.152.56.846.176 1.083-.136.084-.25.414-.252.732C6.47 3.15 5.356 4.805 4.37 5.33c-1.106.589-3.142.643-3.856.102z" fill="#cce6e4"/><path d="M.661 5.51c-.686-.29-.652-.32.658-.613.67-.15.721-.214.34-.428C1.054 4.13.471 2.742.42 1.52.373.38.45.343 1.43 1.04c.395.281 1.038.592 1.43.69.601.15.71.093.71-.373C3.572.522 4.75-.151 5.565.22c.356.162.802.236.99.163.398-.152.56.846.176 1.083-.136.084-.248.403-.248.71 0 .947-1.244 2.753-2.213 3.214-1.021.484-2.614.537-3.608.12z" fill="#bbdfdb"/><path d="M.661 5.494L0 5.2l.661-.1c1.266-.19 1.51-.343 1.001-.628-.607-.341-1.19-1.728-1.24-2.95C.373.376.431.348 1.4 1.045c.394.284 1.044.595 1.444.69.617.147.728.09.728-.378C3.572.535 4.652-.08 5.518.25c.382.145.85.205 1.037.133.205-.079.36.084.383.404.022.295-.071.536-.208.536-.136 0-.248.26-.248.578 0 .318-.238 1.07-.529 1.67-.905 1.87-3.383 2.77-5.292 1.923z" fill="#aad7d2"/><path d="M.661 5.494L0 5.2l.661-.1c1.266-.19 1.51-.343 1.001-.628-.607-.341-1.19-1.728-1.24-2.95C.373.376.431.348 1.4 1.045c.394.284 1.044.595 1.444.69.608.145.728.087.728-.352 0-.714.645-1.196 1.522-1.137.4.027.982.056 1.294.063.539.013.688.507.278.917-.1.101-.184.424-.184.718s-.238 1.026-.529 1.627C5.048 5.44 2.57 6.34.661 5.494z" fill="#99cfca"/><path d="M.778 5.432c-.494-.374-.488-.388.17-.396.971-.012 1.103-.265.43-.827-.321-.268-.48-.491-.353-.496.127-.005.08-.19-.103-.41C.606 2.923.255.529.515.529c.068 0 .562.298 1.098.662 1.172.795 1.959.861 1.959.164 0-.611.588-1.13 1.236-1.09.266.016.857.04 1.314.054.784.023.945.263.586.872-.086.145-.236.707-.334 1.249-.203 1.127-1.2 2.429-2.291 2.993-.963.498-2.646.498-3.305 0z" fill="#88c7c0"/><path d="M1.058 5.567c-.49-.201-.474-.239.224-.514l.753-.297-.62-.517c-.342-.284-.525-.521-.408-.526.118-.005.028-.273-.198-.597-.456-.65-.545-1.113-.17-.88.133.082.109-.205-.054-.637C.172.505.438.393 1.593 1.178c1.078.73 1.979.88 1.979.328 0-.19.16-.564.354-.83.293-.4.563-.453 1.567-.302 1.336.2 1.336.202.716 2.549-.55 2.084-3.199 3.444-5.15 2.644z" fill="#77bfb8"/><path d="M1.058 5.585c-.478-.204-.44-.263.397-.614.888-.372.9-.396.312-.587-.34-.11-.558-.347-.486-.533.07-.183-.126-.55-.436-.816-.366-.314-.451-.52-.243-.59.236-.078.246-.245.037-.635-.156-.29-.218-.697-.14-.903.115-.297.344-.239 1.116.285 1.058.718 1.957.862 1.957.314 0-.19.16-.564.354-.83.292-.4.563-.453 1.562-.303 1.181.177 1.206.2 1.085 1.029-.182 1.254-1.184 3.13-1.979 3.707-.776.563-2.72.825-3.536.476z" fill="#66b7af"/><path d="M1.068 5.628c-.444-.113-.388-.2.38-.598.862-.445.875-.473.302-.655-.33-.104-.54-.34-.47-.524.071-.183-.125-.55-.435-.816-.366-.314-.451-.52-.243-.59.236-.078.246-.245.037-.635C.483 1.52.428 1.094.516.866c.137-.359.242-.338.76.149.331.31.967.637 1.413.727.71.142.834.078.98-.508.201-.798.872-1.06 2.12-.826.987.186.985.174.456 2.138-.669 2.482-2.723 3.705-5.177 3.082z" fill="#55afa6"/><path d="M1.072 5.582c-.45-.176-.398-.245.397-.535.895-.326.9-.338.306-.618-.333-.158-.547-.441-.474-.63.073-.19-.057-.451-.288-.58-.23-.13-.362-.4-.291-.603.07-.202.025-.645-.1-.985-.34-.919.006-1.225.675-.597.32.3.946.618 1.392.708.71.142.834.078.98-.508.201-.798.872-1.06 2.12-.826.989.186.985.17.45 2.16-.653 2.423-3.072 3.834-5.167 3.014z" fill="#44a79d"/><path d="M1.19 5.582c-.65-.184-.645-.193.265-.527.907-.333.914-.346.32-.626-.333-.158-.551-.43-.484-.606.068-.175-.013-.455-.179-.62C.802 2.893.55.793.822.793c.084 0 .456.239.826.53.943.742 1.826.692 2.028-.115.194-.772.876-1.032 2.106-.8.852.159 1.104.6.62 1.084-.101.1-.185.491-.185.867-.002 1.094-.962 2.386-2.188 2.942-1.173.533-1.744.59-2.838.28z" fill="#33a095"/><path d="M1.323 5.575c-.493-.21-.477-.246.224-.522l.753-.297-.62-.517c-.342-.284-.518-.521-.39-.526.126-.005.07-.202-.126-.438S.776 2.37.737 1.79L.667.736l.692.454c.38.25 1.035.552 1.453.672.633.181.76.14.76-.252 0-.837.931-1.428 1.948-1.237.901.169 1.44.787.95 1.09-.138.085-.253.476-.253.868-.002.962-.868 2.32-1.783 2.793-1 .517-2.46.729-3.111.451z" fill="#22988c"/><path d="M1.482 5.593l-.635-.18.724-.33.724-.33-.618-.516c-.34-.283-.51-.52-.38-.524.132-.005.018-.254-.253-.554-.392-.433-.422-.59-.145-.76.244-.152.26-.27.055-.397-.16-.1-.293-.427-.293-.727 0-.454.067-.49.395-.219.217.18.834.479 1.371.663.96.33.984.322 1.392-.492.433-.865 1.06-1.144 1.819-.81.246.108.546.174.666.148.12-.027.142.073.05.222-.092.15-.018.271.166.271.259 0 .262.07.015.318-.174.174-.317.607-.317.96 0 1.982-2.697 3.836-4.736 3.257z" fill="#119083"/><path d="M1.482 5.593l-.635-.18.724-.33.724-.33-.618-.516c-.378-.314-.478-.519-.259-.524.22-.005.116-.214-.264-.533-.496-.416-.551-.572-.266-.76.25-.166.27-.292.066-.418-.16-.1-.293-.427-.293-.727 0-.454.067-.49.395-.219.217.18.834.479 1.371.663.96.33.984.322 1.392-.493C4.16.542 4.373.408 5.027.46c1.289.102 1.439.146 1.296.378-.075.121.02.222.21.224.234.003.252.067.056.199-.159.107-.36.637-.445 1.18-.341 2.162-2.65 3.724-4.662 3.152z" fill="#00887a"/></svg>