<svg xmlns="http://www.w3.org/2000/svg">
  <symbol id="rating" viewBox="0 0 16 15">
    <path
      fill-rule="evenodd"
      clip-rule="evenodd"
      d="M8.73869 0.692727C8.61459 0.39436 8.32318 0.199951 8.00003 0.199951C7.67689 0.199951 7.38547 0.39436 7.26138 0.692727L5.59751 4.69315L1.27871 5.03939C0.956595 5.06521 0.68165 5.28229 0.581792 5.58962C0.481935 5.89695 0.576777 6.23417 0.822192 6.4444L4.11266 9.26303L3.10737 13.4774C3.03239 13.7918 3.15388 14.1203 3.41531 14.3103C3.67674 14.5002 4.02677 14.5142 4.30254 14.3458L8.00003 12.0874L11.6975 14.3458C11.9733 14.5142 12.3233 14.5002 12.5848 14.3103C12.8462 14.1203 12.9677 13.7918 12.8927 13.4774L11.8874 9.26303L15.1779 6.4444C15.4233 6.23417 15.5181 5.89695 15.4183 5.58962C15.3184 5.28229 15.0435 5.06521 14.7214 5.03939L10.4026 4.69315L8.73869 0.692727Z"
      fill="currentColor"
    />
  </symbol>
  <symbol id="chevron-right" viewBox="0 0 8 12">
    <path
      fill-rule="evenodd"
      clip-rule="evenodd"
      d="M1.22091 11.4998C0.902487 11.1935 0.892657 10.6871 1.19895 10.3687L5.39003 6.00075L1.19708 1.63097C0.890779 1.31254 0.90061 0.806108 1.21903 0.49981C1.53746 0.193513 2.04389 0.203344 2.35019 0.521768L7.07663 5.44615C7.37455 5.75587 7.37455 6.24563 7.07663 6.55535L2.35207 11.4779C2.04577 11.7963 1.53934 11.8061 1.22091 11.4998Z"
      fill="currentColor"
      fill-opacity="0.6"
    />
  </symbol>
  <symbol id="chevron-left" viewBox="0 0 8 14">
   <path
      fill-rule="evenodd"
      clip-rule="evenodd"
      d="M7.3546 13.7725C7.67302 13.4662 7.68285 12.9597 7.37656 12.6413L1.91004 6.99796L7.37656 1.3546C7.68286 1.03618 7.67302 0.529741 7.3546 0.223443C7.03618 -0.0828541 6.52974 -0.0730227 6.22344 0.245401L0.223442 6.44336C-0.0744808 6.75308 -0.0744808 7.24284 0.223442 7.55256L6.22344 13.7505C6.52974 14.0689 7.03618 14.0788 7.3546 13.7725Z"
      fill="currentColor"
    />
  </symbol>
  <symbol id="clear" viewBox="0 0 14 14">
    <path
      fill-rule="evenodd"
      clip-rule="evenodd"
      d="M13.2226 1.9089C13.535 1.59648 13.535 1.08995 13.2226 0.777528C12.9102 0.465109 12.4037 0.465109 12.0912 0.777528L7.00007 5.8687L1.9089 0.777528C1.59648 0.465109 1.08995 0.465107 0.777527 0.777527C0.465108 1.08995 0.465108 1.59648 0.777528 1.9089L5.8687 7.00007L0.777528 12.0912C0.465108 12.4037 0.465108 12.9102 0.777527 13.2226C1.08995 13.535 1.59648 13.535 1.9089 13.2226L7.00007 8.13144L12.0912 13.2226C12.4037 13.535 12.9102 13.535 13.2226 13.2226C13.535 12.9102 13.535 12.4037 13.2226 12.0912L8.13144 7.00007L13.2226 1.9089Z"
      fill="currentColor"
      fill-opacity="0.6"
    />
  </symbol>
  <symbol id="reload" viewBox="0 0 19 20">
    <path
      fill-rule="evenodd"
      clip-rule="evenodd"
      d="M18.0107 1.65338C17.9767 1.21287 17.5919 0.883385 17.1514 0.917461C16.7109 0.951537 16.3814 1.33627 16.4155 1.77678L16.6452 4.7462C15.4808 3.45716 13.9622 2.52643 12.2678 2.07829C10.2192 1.53645 8.04506 1.73486 6.12835 2.63858C4.21164 3.5423 2.67527 5.09336 1.78985 7.0186C0.904425 8.94383 0.726729 11.1197 1.28806 13.1631C1.84938 15.2065 3.11373 16.9863 4.85842 18.189C6.60311 19.3918 8.71624 19.9403 10.8256 19.738C12.9351 19.5357 14.9054 18.5956 16.3898 17.0833C17.8741 15.5709 18.7772 13.5833 18.94 11.4705C18.9739 11.0299 18.6443 10.6453 18.2038 10.6114C17.7633 10.5774 17.3786 10.907 17.3447 11.3475C17.2109 13.0848 16.4683 14.719 15.2479 15.9625C14.0274 17.206 12.4073 17.979 10.6729 18.1453C8.93852 18.3116 7.20106 17.8606 5.76653 16.8717C4.33201 15.8828 3.29244 14.4194 2.8309 12.7393C2.36937 11.0592 2.51547 9.2701 3.24349 7.68713C3.9715 6.10416 5.23473 4.82884 6.8107 4.08578C8.38666 3.34273 10.1743 3.17959 11.8587 3.6251C13.3369 4.01607 14.6525 4.85379 15.63 6.01617L12.6958 6.0254C12.254 6.02679 11.897 6.38609 11.8984 6.82791C11.8997 7.26974 12.259 7.62678 12.7009 7.62539L17.6098 7.60995C17.8322 7.60925 18.0443 7.51595 18.1952 7.35246C18.346 7.18897 18.422 6.97005 18.4049 6.74825L18.0107 1.65338Z"
      fill="currentColor"
    />
  </symbol>
  <symbol id="clock" viewBox="0 0 14 14">
    <path
      fill-rule="evenodd"
      clip-rule="evenodd"
      d="M12.4 7C12.4 9.98234 9.98234 12.4 7 12.4C4.01766 12.4 1.6 9.98234 1.6 7C1.6 4.01766 4.01766 1.6 7 1.6C9.98234 1.6 12.4 4.01766 12.4 7ZM14 7C14 10.866 10.866 14 7 14C3.13401 14 0 10.866 0 7C0 3.13401 3.13401 0 7 0C10.866 0 14 3.13401 14 7ZM7.8 4C7.8 3.55817 7.44183 3.2 7 3.2C6.55817 3.2 6.2 3.55817 6.2 4V7.125C6.2 7.34613 6.29153 7.55739 6.45285 7.70863L8.45285 9.58363C8.77518 9.88581 9.28145 9.86948 9.58363 9.54715C9.88581 9.22482 9.86948 8.71855 9.54715 8.41637L7.8 6.77841V4Z"
      fill="currentColor"
    />
  </symbol>
  <symbol id="cancel" viewBox="0 0 16 16">
   <path
      fill-rule="evenodd"
      clip-rule="evenodd"
      d="M11.2108 12.3422C10.3133 13.0069 9.20258 13.4 8 13.4C5.01766 13.4 2.6 10.9823 2.6 8C2.6 6.79742 2.99311 5.68666 3.65783 4.7892L11.2108 12.3422ZM12.3422 11.2108L4.7892 3.65783C5.68666 2.99311 6.79742 2.6 8 2.6C10.9823 2.6 13.4 5.01766 13.4 8C13.4 9.20258 13.0069 10.3133 12.3422 11.2108ZM15 8C15 11.866 11.866 15 8 15C4.13401 15 1 11.866 1 8C1 4.13401 4.13401 1 8 1C11.866 1 15 4.13401 15 8Z"
      fill="currentColor"
    />
  </symbol>
  <symbol id="tick-outlined" viewBox="0 0 14 15">
    <path
      fill-rule="evenodd"
      clip-rule="evenodd"
      d="M12.4 7.33301C12.4 10.3153 9.98234 12.733 7 12.733C4.01766 12.733 1.6 10.3153 1.6 7.33301C1.6 4.35067 4.01766 1.93301 7 1.93301C8.69966 1.93301 10.2159 2.71825 11.2058 3.94575L6.6826 8.21756L4.56569 6.10065L3.43431 7.23202L6.10098 9.89868L6.65073 10.4484L7.21596 9.91461L12.031 5.36714C12.2692 5.97635 12.4 6.63941 12.4 7.33301ZM14 7.33301C14 11.199 10.866 14.333 7 14.333C3.13401 14.333 0 11.199 0 7.33301C0 3.46701 3.13401 0.333008 7 0.333008C10.866 0.333008 14 3.46701 14 7.33301Z"
      fill="currentColor"
    />
  </symbol>
  <symbol id="arrow-left-bold" viewBox="0 0 24 24">
    <path
      fill-rule="evenodd"
      clip-rule="evenodd"
      d="M10.6294 3.65566C11.3719 3.03692 12.4754 3.13724 13.0941 3.87972C13.7128 4.62221 13.6125 5.72569 12.87 6.34443C11.5791 7.42023 10.0624 8.9146 8.77124 10.25H21.7498C22.7163 10.25 23.4998 11.0335 23.4998 12C23.4998 12.9665 22.7163 13.75 21.7498 13.75H8.77122C10.0624 15.0855 11.5791 16.5798 12.87 17.6557C13.6125 18.2744 13.7128 19.3779 13.0941 20.1204C12.4754 20.8629 11.3719 20.9632 10.6294 20.3444C9.05006 19.0283 7.24412 17.2191 5.86009 15.7722C5.16181 15.0422 4.55912 14.3919 4.13066 13.9238C3.9163 13.6895 3.7452 13.5006 3.62717 13.3695C2.87173 12.5308 2.84826 11.4953 3.62717 10.6306C3.7452 10.4995 3.9163 10.3105 4.13066 10.0763C4.55912 9.6082 5.16181 8.95792 5.86009 8.2279C7.24412 6.78096 9.05006 4.97176 10.6294 3.65566Z"
      fill="currentColor"
    />
  </symbol>
  <symbol id="close-bold" viewBox="0 0 24 24">
    <path
      d="M16.9864 5.89428C17.5971 5.33449 18.546 5.37574 19.1057 5.98642C19.6655 6.5971 19.6243 7.54595 19.0136 8.10574L7.0136 19.1057C6.40292 19.6655 5.45407 19.6243 4.89428 19.0136C4.33449 18.4029 4.37574 17.4541 4.98642 16.8943L16.9864 5.89428Z"
      fill="#3071DE"
    />
    <path
      d="M5.87261 6.98943C5.32617 6.36678 5.38795 5.41904 6.01061 4.87261C6.63326 4.32617 7.581 4.38795 8.12743 5.01061C12.8622 10.4057 16.4101 14.3245 18.7638 16.7595C19.3396 17.3552 19.3235 18.3048 18.7278 18.8805C18.1322 19.4563 17.1826 19.4402 16.6068 18.8445C14.2121 16.3671 10.6366 12.4179 5.87261 6.98943Z"
      fill="#3071DE"
    />
  </symbol>
  <symbol id="download" viewBox="0 0 24 24">
    <path
      fill-rule="evenodd"
      clip-rule="evenodd"
      d="M5.43434 9.06588C5.12192 8.75346 5.12192 8.24693 5.43434 7.93451L11.4343 1.93451C11.511 1.85781 11.5994 1.79994 11.6938 1.7609C11.7866 1.72239 11.8883 1.70087 11.995 1.70021L12 1.7002L12.0051 1.70021C12.2082 1.7015 12.4108 1.7796 12.5657 1.93451L18.5657 7.93451C18.8781 8.24693 18.8781 8.75346 18.5657 9.06588C18.2533 9.3783 17.7468 9.3783 17.4343 9.06588L12.8 4.43157V15.5002C12.8 15.942 12.4418 16.3002 12 16.3002C11.5582 16.3002 11.2 15.942 11.2 15.5002V4.43157L6.56571 9.06588C6.25329 9.3783 5.74676 9.3783 5.43434 9.06588ZM3.79999 18.6668L3.79999 15.0002C3.79999 14.5583 3.44181 14.2002 2.99999 14.2002C2.55816 14.2002 2.19999 14.5583 2.19999 15.0002V18.6668C2.19999 19.4614 2.46945 20.2436 2.97837 20.8374C3.49055 21.4349 4.21409 21.8002 4.99999 21.8002H19C19.7859 21.8002 20.5094 21.4349 21.0216 20.8374C21.5305 20.2436 21.8 19.4614 21.8 18.6668V15.0002C21.8 14.5583 21.4418 14.2002 21 14.2002C20.5582 14.2002 20.2 14.5583 20.2 15.0002V18.6668C20.2 19.1099 20.048 19.5147 19.8068 19.7961C19.5688 20.0737 19.275 20.2002 19 20.2002L4.99999 20.2002C4.72502 20.2002 4.43114 20.0737 4.19318 19.7961C3.95195 19.5147 3.79999 19.1099 3.79999 18.6668Z"
      fill="currentColor"
    />
  </symbol>
</svg>
